<svg xmlns="http://www.w3.org/2000/svg" xmlns:xlink="http://www.w3.org/1999/xlink" width="2099" height="502.355" viewBox="0 0 2099 502.355">
  <defs>
    <clipPath id="clip-path">
      <rect id="Rectangle_23" data-name="Rectangle 23" width="2099" height="464" rx="35" fill="#4f4ccf"/>
    </clipPath>
  </defs>
  <g id="Mask_Group_2" data-name="Mask Group 2" clip-path="url(#clip-path)">
    <path id="Exclusion_18" data-name="Exclusion 18" d="M895.889,450.743l-83.671-51.128,95.449-41.255-11.778,92.383h0Zm7.923-87.579-83.03,36.952L892.42,443.89Zm524.857,75.918-88.978-51.1,90.188-41.846-1.21,92.945h0Zm-3.19-86.515h0L1348.261,388.4l77.252,45.505-.035-81.335ZM60.328,435.576h0l-22.779-90.8L137.419,377.1l-77.09,58.478ZM41.959,349.2h0l21,79.244,66-50.069-87-29.175Zm1041.56,54.913-11.779-92.382,95.45,41.255-83.671,51.127h0Zm-7.924-87.577,11.392,80.726,71.637-43.775Zm885.632,72.771-83.671-51.128,95.449-41.255-11.778,92.382h0Zm7.923-87.579-83.03,36.952,71.638,43.774ZM398.417,381.118,314.747,329.99,410.2,288.736l-11.778,92.382h0Zm7.922-87.579h0l-83.029,36.952,71.638,43.774L406.34,293.54ZM1663.215,376l-83.671-51.128,95.448-41.255L1663.215,376h0Zm7.923-87.579-83.03,36.952,71.638,43.774Zm-1073.9,57.258h0l-61.47-71.188,105.386-13.5-43.916,84.685Zm38.548-81.157h0l-92.05,12.754,52.631,60.949,39.42-73.7Zm772.88,44.484h0l-61.47-71.188,105.386-13.5L1408.664,309Zm38.548-81.157h0L1355.161,240.6l52.631,60.949,39.42-73.7ZM304.555,207.059h0l-83.67-51.128,95.448-41.255-11.778,92.383Zm7.923-87.579-83.03,36.952,71.638,43.774,11.392-80.726Zm1600.645,78.364-83.671-51.128,95.45-41.255-11.779,92.383h0Zm7.923-87.579-83.03,36.952,71.639,43.774,11.39-80.726ZM540.384,135.387h0l-83.67-51.128L552.163,43l-11.779,92.382Zm7.923-87.579L465.277,84.76l71.639,43.774,11.39-80.726h0ZM1711.318,119h0l-83.67-51.128L1723.1,26.621,1711.318,119Zm7.923-87.579-83.029,36.952,71.638,43.774ZM793.324,98.951,758.389,15.189l105.3,13.982L793.325,98.95h0ZM765.075,19.886h0L794.987,91.6l62.389-60.425-92.3-11.29Zm520.343,72.5-83.671-51.128L1297.2,0l-11.778,92.382h0ZM1293.341,4.8l-83.03,36.952,71.638,43.774L1293.341,4.8ZM61.471,86.046h0L0,14.857,105.386,1.36,61.471,86.045ZM100.019,4.89,7.967,17.643,60.6,78.593l39.42-73.7Z" transform="translate(51.308 30.409)" fill="#acaaf9" opacity="0.44"/>
  </g>
  <g id="Group_23" data-name="Group 23" transform="translate(32.659 19.231)">
    <path id="Path_193" data-name="Path 193" d="M11.04,0l11.04,20.206H0Z" transform="matrix(-0.469, -0.883, 0.883, -0.469, 1979.054, 348.632)" fill="#acaaf9" opacity="0.43"/>
    <path id="Path_192" data-name="Path 192" d="M11.04,0l11.04,20.206H0Z" transform="matrix(-0.616, -0.788, 0.788, -0.616, 1993.316, 108.308)" fill="#acaaf9" opacity="0.43"/>
    <path id="Path_190" data-name="Path 190" d="M11.04,0l11.04,20.206H0Z" transform="translate(1965.337 277.806) rotate(76)" fill="#acaaf9" opacity="0.43"/>
    <path id="Path_189" data-name="Path 189" d="M11.04,0l11.04,20.206H0Z" transform="matrix(0.899, 0.438, -0.438, 0.899, 1944.679, 167.051)" fill="#acaaf9" opacity="0.43"/>
    <path id="Path_187" data-name="Path 187" d="M11.04,0l11.04,20.206H0Z" transform="translate(1927.035 299.763) rotate(83)" fill="#acaaf9" opacity="0.43"/>
    <path id="Path_184" data-name="Path 184" d="M11.04,0l11.04,20.206H0Z" transform="matrix(-0.995, -0.105, 0.105, -0.995, 1898.38, 282.899)" fill="#acaaf9" opacity="0.43"/>
    <path id="Path_180" data-name="Path 180" d="M11.04,0l11.04,20.206H0Z" transform="translate(1846.872 466.975) rotate(133)" fill="#acaaf9" opacity="0.43"/>
    <path id="Path_166" data-name="Path 166" d="M11.04,0l11.04,20.206H0Z" transform="matrix(-0.998, 0.07, -0.07, -0.998, 1507.234, 215.14)" fill="#acaaf9" opacity="0.43"/>
    <path id="Path_163" data-name="Path 163" d="M11.04,0l11.04,20.206H0Z" transform="translate(1505.199 310.898) rotate(34)" fill="#acaaf9" opacity="0.43"/>
    <path id="Path_156" data-name="Path 156" d="M11.04,0l11.04,20.206H0Z" transform="matrix(-0.407, -0.914, 0.914, -0.407, 1333.888, 470.955)" fill="#acaaf9" opacity="0.43"/>
    <path id="Path_153" data-name="Path 153" d="M11.04,0l11.04,20.206H0Z" transform="matrix(0.174, 0.985, -0.985, 0.174, 1817.961, 0)" fill="#acaaf9" opacity="0.43"/>
    <path id="Path_150" data-name="Path 150" d="M11.04,0l11.04,20.206H0Z" transform="matrix(-0.574, 0.819, -0.819, -0.574, 760.661, 455.797)" fill="#acaaf9" opacity="0.43"/>
    <path id="Path_139" data-name="Path 139" d="M11.04,0l11.04,20.206H0Z" transform="translate(1911.727 28.161) rotate(99)" fill="#acaaf9" opacity="0.43"/>
    <path id="Path_136" data-name="Path 136" d="M11.04,0l11.04,20.206H0Z" transform="translate(1012.779 299.317) rotate(173)" fill="#acaaf9" opacity="0.43"/>
    <path id="Path_133" data-name="Path 133" d="M11.04,0l11.04,20.206H0Z" transform="matrix(0.995, 0.105, -0.105, 0.995, 951.582, 108.643)" fill="#acaaf9" opacity="0.43"/>
    <path id="Path_127" data-name="Path 127" d="M11.04,0l11.04,20.206H0Z" transform="matrix(-0.208, 0.978, -0.978, -0.208, 892.15, 302.98)" fill="#acaaf9" opacity="0.43"/>
    <path id="Path_124" data-name="Path 124" d="M11.04,0l11.04,20.206H0Z" transform="translate(837.537 196.599) rotate(110)" fill="#acaaf9" opacity="0.43"/>
    <path id="Path_117" data-name="Path 117" d="M11.04,0l11.04,20.206H0Z" transform="translate(720.288 75.296) rotate(19)" fill="#acaaf9" opacity="0.43"/>
    <path id="Path_115" data-name="Path 115" d="M11.04,0l11.04,20.206H0Z" transform="translate(691.615 249.761) rotate(48)" fill="#acaaf9" opacity="0.43"/>
    <path id="Path_112" data-name="Path 112" d="M11.04,0l11.04,20.206H0Z" transform="matrix(0.545, 0.839, -0.839, 0.545, 637.254, 114.433)" fill="#acaaf9" opacity="0.43"/>
    <path id="Path_105" data-name="Path 105" d="M11.04,0l11.04,20.206H0Z" transform="translate(500.495 22.244) rotate(71)" fill="#acaaf9" opacity="0.43"/>
    <path id="Path_100" data-name="Path 100" d="M11.04,0l11.04,20.206H0Z" transform="matrix(-0.469, 0.883, -0.883, -0.469, 435.714, 352.945)" fill="#acaaf9" opacity="0.43"/>
    <path id="Path_99" data-name="Path 99" d="M11.04,0l11.04,20.206H0Z" transform="translate(410.707 213.704) rotate(-93)" fill="#acaaf9" opacity="0.43"/>
    <path id="Path_94" data-name="Path 94" d="M11.04,0l11.04,20.206H0Z" transform="matrix(-0.174, -0.985, 0.985, -0.174, 301.756, 453.429)" fill="#acaaf9" opacity="0.43"/>
    <path id="Path_91" data-name="Path 91" d="M11.04,0l11.04,20.206H0Z" transform="translate(263.365 401.395) rotate(-141)" fill="#acaaf9" opacity="0.43"/>
    <path id="Path_88" data-name="Path 88" d="M11.04,0l11.04,20.206H0Z" transform="translate(212.034 297.227) rotate(82)" fill="#acaaf9" opacity="0.43"/>
    <path id="Path_82" data-name="Path 82" d="M11.04,0l11.04,20.206H0Z" transform="translate(121.901 431.988) rotate(22)" fill="#acaaf9" opacity="0.43"/>
    <path id="Path_81" data-name="Path 81" d="M11.04,0l11.04,20.206H0Z" transform="matrix(0.017, 1, -1, 0.017, 150.667, 362.241)" fill="#acaaf9" opacity="0.43"/>
    <path id="Path_79" data-name="Path 79" d="M11.04,0l11.04,20.206H0Z" transform="matrix(-0.602, 0.799, -0.799, -0.602, 98.679, 189.102)" fill="#acaaf9" opacity="0.43"/>
    <path id="Path_196" data-name="Path 196" d="M8.413,0l8.413,15.4H0Z" transform="matrix(0.309, 0.951, -0.951, 0.309, 2028.446, 422.471)" fill="#acaaf9" opacity="0.43"/>
    <path id="Path_181" data-name="Path 181" d="M8.413,0l8.413,15.4H0Z" transform="matrix(0.105, 0.995, -0.995, 0.105, 1837.427, 372.175)" fill="#acaaf9" opacity="0.43"/>
    <path id="Path_178" data-name="Path 178" d="M8.413,0l8.413,15.4H0Z" transform="translate(1804.844 297.638) rotate(48)" fill="#acaaf9" opacity="0.43"/>
    <path id="Path_177" data-name="Path 177" d="M8.413,0l8.413,15.4H0Z" transform="matrix(0.309, 0.951, -0.951, 0.309, 1819.826, 237.916)" fill="#acaaf9" opacity="0.43"/>
    <path id="Path_175" data-name="Path 175" d="M8.413,0l8.413,15.4H0Z" transform="translate(1768.811 193.699) rotate(83)" fill="#acaaf9" opacity="0.43"/>
    <path id="Path_174" data-name="Path 174" d="M8.413,0l8.413,15.4H0Z" transform="matrix(-0.469, -0.883, 0.883, -0.469, 1803.623, 102.789)" fill="#acaaf9" opacity="0.43"/>
    <path id="Path_169" data-name="Path 169" d="M8.413,0l8.413,15.4H0Z" transform="translate(1628.541 273.959) rotate(-112)" fill="#acaaf9" opacity="0.43"/>
    <path id="Path_168" data-name="Path 168" d="M8.413,0l8.413,15.4H0Z" transform="translate(1567.649 206.388) rotate(171)" fill="#acaaf9" opacity="0.43"/>
    <path id="Path_165" data-name="Path 165" d="M8.413,0l8.413,15.4H0Z" transform="matrix(-0.07, 0.998, -0.998, -0.07, 1489.727, 119.339)" fill="#acaaf9" opacity="0.43"/>
    <path id="Path_160" data-name="Path 160" d="M8.413,0l8.413,15.4H0Z" transform="matrix(-1, -0.017, 0.017, -1, 1435.718, 214.182)" fill="#acaaf9" opacity="0.43"/>
    <path id="Path_159" data-name="Path 159" d="M8.413,0l8.413,15.4H0Z" transform="matrix(0.53, 0.848, -0.848, 0.53, 1405.002, 110.446)" fill="#acaaf9" opacity="0.43"/>
    <path id="Path_157" data-name="Path 157" d="M8.413,0l8.413,15.4H0Z" transform="matrix(-0.819, 0.574, -0.574, -0.819, 1358.688, 375.972)" fill="#acaaf9" opacity="0.43"/>
    <path id="Path_154" data-name="Path 154" d="M8.413,0l8.413,15.4H0Z" transform="translate(1295.928 396.156) rotate(172)" fill="#acaaf9" opacity="0.43"/>
    <path id="Path_151" data-name="Path 151" d="M8.413,0l8.413,15.4H0Z" transform="translate(1262.134 356.902) rotate(104)" fill="#acaaf9" opacity="0.43"/>
    <path id="Path_147" data-name="Path 147" d="M8.413,0l8.413,15.4H0Z" transform="matrix(-0.999, 0.035, -0.035, -0.999, 1215.858, 106.201)" fill="#acaaf9" opacity="0.43"/>
    <path id="Path_145" data-name="Path 145" d="M8.413,0l8.413,15.4H0Z" transform="matrix(-0.719, -0.695, 0.695, -0.719, 1183.373, 372.567)" fill="#acaaf9" opacity="0.43"/>
    <path id="Path_144" data-name="Path 144" d="M8.413,0l8.413,15.4H0Z" transform="translate(1573.145 12.163) rotate(68)" fill="#acaaf9" opacity="0.43"/>
    <path id="Path_142" data-name="Path 142" d="M8.413,0l8.413,15.4H0Z" transform="translate(1126.436 202.855) rotate(9)" fill="#acaaf9" opacity="0.43"/>
    <path id="Path_138" data-name="Path 138" d="M8.413,0l8.413,15.4H0Z" transform="translate(1098.873 71.108) rotate(-172)" fill="#acaaf9" opacity="0.43"/>
    <path id="Path_123" data-name="Path 123" d="M8.413,0l8.413,15.4H0Z" transform="translate(671.248 207.234) rotate(82)" fill="#acaaf9" opacity="0.43"/>
    <path id="Path_121" data-name="Path 121" d="M8.413,0l8.413,15.4H0Z" transform="matrix(-0.788, -0.616, 0.616, -0.788, 761.38, 355.602)" fill="#acaaf9" opacity="0.43"/>
    <path id="Path_109" data-name="Path 109" d="M8.413,0l8.413,15.4H0Z" transform="translate(569.93 379.685) rotate(159)" fill="#acaaf9" opacity="0.43"/>
    <path id="Path_108" data-name="Path 108" d="M8.413,0l8.413,15.4H0Z" transform="matrix(-0.978, 0.208, -0.208, -0.978, 580.518, 299.49)" fill="#acaaf9" opacity="0.43"/>
    <path id="Path_103" data-name="Path 103" d="M8.413,0l8.413,15.4H0Z" transform="matrix(-0.309, 0.951, -0.951, -0.309, 519.388, 436.271)" fill="#acaaf9" opacity="0.43"/>
    <path id="Path_96" data-name="Path 96" d="M8.413,0l8.413,15.4H0Z" transform="matrix(0.819, 0.574, -0.574, 0.819, 411.882, 90.647)" fill="#acaaf9" opacity="0.43"/>
    <path id="Path_93" data-name="Path 93" d="M8.413,0l8.413,15.4H0Z" transform="matrix(0.602, 0.799, -0.799, 0.602, 236.147, 57.068)" fill="#acaaf9" opacity="0.43"/>
    <path id="Path_85" data-name="Path 85" d="M8.413,0l8.413,15.4H0Z" transform="translate(187.476 277.576) rotate(-159)" fill="#acaaf9" opacity="0.43"/>
    <path id="Path_84" data-name="Path 84" d="M8.413,0l8.413,15.4H0Z" transform="matrix(0.891, 0.454, -0.454, 0.891, 166.098, 142.12)" fill="#acaaf9" opacity="0.43"/>
    <path id="Path_76" data-name="Path 76" d="M8.413,0l8.413,15.4H0Z" transform="matrix(-0.309, 0.951, -0.951, -0.309, 48.323, 336.194)" fill="#acaaf9" opacity="0.43"/>
    <path id="Path_75" data-name="Path 75" d="M8.413,0l8.413,15.4H0Z" transform="matrix(-0.883, -0.469, 0.469, -0.883, 49.946, 126.153)" fill="#acaaf9" opacity="0.43"/>
    <path id="Path_73" data-name="Path 73" d="M8.413,0l8.413,15.4H0Z" transform="translate(2.342 291.401) rotate(-98)" fill="#acaaf9" opacity="0.43"/>
    <path id="Path_72" data-name="Path 72" d="M8.413,0l8.413,15.4H0Z" transform="translate(9.305 159.825) rotate(-112)" fill="#acaaf9" opacity="0.43"/>
  </g>
</svg>
