<?xml version="1.0" encoding="utf-8"?>
<!-- Generator: Adobe Illustrator 24.0.0, SVG Export Plug-In . SVG Version: 6.00 Build 0)  -->
<svg version="1.1" id="Layer_1" xmlns="http://www.w3.org/2000/svg" xmlns:xlink="http://www.w3.org/1999/xlink" x="0px" y="0px"
	 viewBox="0 0 434.4 220.9" style="enable-background:new 0 0 434.4 220.9;" xml:space="preserve">
<style type="text/css">
	.st0{opacity:6.000000e-02;}
	.st1{fill:none;stroke:#000000;stroke-width:0.3;}
	
		.st0{opacity:0.03; 
	animation: rotationanim 10s linear infinite;
        transform-origin: center center;}

#cogs1{transform-origin: 19.556189862345% 38.726351045533%;}
#cogs2{transform-origin: 48.226140601261% 70.320901602245%;
 animation-name:rotationanimreclock;}
#cogs3{transform-origin: 76.914736890567% 65.877161220241%;}
#cogs4{transform-origin: 89.107085309148% 24.794966959355%;  animation-name:rotationanimreclock;}
#cogs5{transform-origin:63.042907785093% 34.56141938988% ; animation-name:rotationanimreclock; }
	
@keyframes rotationanim{
0%{ transform: rotate(0deg)}
100%{ transform: rotate(360deg);}
}
@keyframes rotationanimreclock{
0%{ transform: rotate(360deg)}
100%{ transform: rotate(0deg);}
}
</style>
<path id="cogs4" class="st0" d="M406.7,85.9c-0.3-1.1-0.6-1.9-0.6-1.9s0.7-0.4,1.4-1c1-0.7,2.8-2.2,3.8-3.2c3.6,2.1,8,4.2,11.6,5.5
	c0.7-0.9,2.1-2.6,2.7-3.6c1.3-1.8,2.4-3.8,2.4-3.8c-2.7-3.2-6.2-6.5-9.2-9c0.8-1.9,1.6-3.9,2.1-6.3c4.4-0.2,9.4-0.9,12.7-1.7
	c0.4-3.1,0.5-6,0.3-8.9c-3.4-1.1-8.5-2.1-12.6-2.6c-0.3-1.8-0.8-4.1-1.7-6.4c3.1-2.1,6.8-5.2,9.8-8.3c-1.5-3.1-3.5-6.3-4.6-7.7
	c-3.7,1-8.2,2.8-12,4.6c0,0-0.5-0.6-1.1-1.2c-0.8-0.9-2.6-2.5-3.7-3.3c1.6-3.9,3-8.5,3.8-12.3c0,0-0.5-0.3-1.2-0.7
	c-0.7-0.4-1.7-1-2.7-1.5c-2-1-4.1-1.8-4.1-1.8s-0.5,0.6-1.3,1.5c-2.3,2.8-4.7,6.2-6.2,8.8c-2.7-0.7-5.2-1.1-6.5-1.2
	c-0.7-4-2-8.4-3.5-12.3c0,0-0.1,0-0.4,0c-0.2,0-0.6,0-1,0c-0.8,0-2,0.1-3.1,0.2c-1.1,0.1-2.2,0.3-3.1,0.4c-0.8,0.2-1.4,0.3-1.4,0.3
	s-0.1,0.8-0.3,2c-0.5,3.8-0.6,7.6-0.5,10.8c-1.8,0.5-3.9,1.4-6.1,2.6c0,0-2.2-2.3-4.6-4.4c-1.2-1.1-2.5-2.1-3.4-2.8
	c-1-0.7-1.6-1.2-1.6-1.2s-0.1,0.1-0.3,0.2c-0.2,0.1-0.5,0.3-0.8,0.6c-0.7,0.5-1.6,1.1-2.5,1.9c-0.9,0.7-1.7,1.5-2.3,2
	c-0.6,0.6-1,1-1,1c1.6,3.5,3.9,7.8,6.3,11.2c-1.2,1.4-2.9,3.9-3.8,5.5c-3.7-1-8.5-1.7-12.7-2c-1.6,3.6-2.5,7-2.8,8.5
	c3.7,2.4,8.1,4.7,11.3,6c-0.3,2.6-0.4,3.4-0.2,6.7c-3.4,1.1-8,3.1-11.7,5.2c0.1,1.2,0.8,4.6,2.2,8.7c3.8,0,8.7-0.3,12.8-1.1
	c0.7,1.6,2.3,4.2,3.4,5.7c-2.6,3.3-5.2,7.3-7,10.7c0,0,0.4,0.4,0.9,1c0.6,0.6,1.4,1.4,2.2,2.2c0.7,0.6,2,1.8,3.4,2.9
	c3.6-2.3,7.4-5.2,10.2-7.8c0,0,0.2,0.1,0.4,0.3c0.3,0.2,0.6,0.4,1,0.6c0.7,0.4,1.5,0.8,1.5,0.8s0.2,0.1,0.5,0.2
	c0.3,0.2,1.7,0.8,2.6,1.1c-0.5,4.2-0.5,9-0.1,12.8c4.2,1.1,7.7,1.5,8.8,1.6c1.8-3.8,3.3-8.1,4.3-12.1c1.4,0,3.9-0.2,6.6-0.7
	c1.7,3.4,4.2,7.5,6.8,10.9c2.9-0.9,5.6-2.1,8.3-3.5c0,0-0.4-3.2-1.2-6.4C407.5,88.6,407,87,406.7,85.9z M387.5,70.6
	c-8.8,0.3-16.1-6.6-16.4-15.4c-0.3-8.8,6.6-16.1,15.4-16.4c8.8-0.3,16.1,6.6,16.4,15.4C403.1,63,396.2,70.3,387.5,70.6z"/>
<path id="cogs3" class="st0" d="M374.8,196.7c3.8-3.3,4.1-3.7,5.8-5.4c-0.7-1.4-2.7-5.5-5.9-10.4c1.1-1.3,2.6-3.4,3.9-5.3
	c3.6,1.2,7.6,2.2,11.4,2.9c0.8-1.3,2.5-4.8,3.5-7.2c-4.2-4-7.7-6.5-9.1-7.6c0.8-2.5,1.6-5.6,1.7-6.4c5.9-0.4,10.4-1.2,11.6-1.4
	c0.5-3.8,0.5-5,0.7-8c-3-1.3-8-2.9-11.2-3.8c-0.1-1.8-0.1-3.2-0.7-6.6c2.4-1.2,5.8-2.9,10.2-5.6c-0.4-1.8-1.4-5.6-2.2-7.8
	c-5.9-0.1-10.1,0.4-11.7,0.6c-1.4-3.2-2.2-4.5-3-6c2.3-2.5,5.7-6.5,7.5-9c-2.8-4.1-3.8-5.2-4.8-6.5c-3.4,1.4-6.8,2.8-10.6,4.8
	c-0.8-1-3.3-3.3-4.9-4.5c1-2.5,2.3-6.1,3.7-11.3c-2.1-1.6-5.5-3.7-6.8-4.3c-2.8,2.6-5.7,5.6-8.1,8.5c-2.2-1-4.5-2-6.1-2.5
	c0.1-4.6-0.2-8.2-0.5-11.9c-3.8-1-5.4-1.2-7.8-1.6c-2,4-3.3,7.4-4.5,10.9c-3.2-0.2-4.4-0.1-6.5,0c-1.3-3.6-2.7-7-4.7-11
	c-1.8,0.3-4.2,0.5-7.7,1.4c0,0-0.3,3-0.3,6c-0.1,3,0,6,0,6s-0.2,0.1-0.5,0.2c-1.9,0.6-4.5,1.7-5.6,2.2c-3-3.5-5.7-6.2-8.3-8.6
	c-3.9,2.2-4.8,2.9-6.7,4.2c1.1,3.7,2.3,7.3,3.9,11.3c-1,0.8-2.8,2.4-4.8,4.5c-1.4-0.8-5.2-2.8-10.7-5c-1.2,1.4-3.6,4.6-4.7,6.4
	c2.3,3.1,5,6.4,7.6,9.2c-0.6,1.1-2.1,4.1-2.9,5.9c-4.6-0.6-8.1-0.7-11.7-0.8c-0.9,2.8-1.7,5.7-2.1,7.7c4,2.5,7.1,4.2,10.3,5.8
	c-0.5,3.4-0.5,5-0.5,6.6c-3.3,0.8-8.2,2.5-11.1,3.6c0.1,1.2,0.2,4.5,0.8,8c1.6,0.3,5.9,1.2,11.6,1.6c0.4,1.9,1.4,5.3,1.9,6.4
	c-3.6,2.7-6.3,5-9,7.5c1.3,3.2,2.9,6,3.6,7.3c3.2-0.5,8.2-1.8,11.3-2.8c1,1.5,1.7,2.6,4,5.3c-2,3.2-3.7,6.2-5.7,10.3
	c1.2,1.3,3.5,3.5,5.9,5.5c1.5-1,5.1-3.2,9.5-6.8c1.8,1.3,4.6,3,5.6,3.5c-0.7,3.7-1.3,7.9-1.6,11.8c2.8,1.4,6.2,2.6,7.4,3
	c3.5-4.7,5.7-8.5,6.4-9.9c2.6,0.7,4.9,1.1,6.4,1.3c0.7,4.3,1.6,8,2.7,11.6c4.3,0.2,5.6,0.2,7.9,0.1c1-3.7,1.8-7.3,2.4-11.6
	c2.9-0.4,3.9-0.6,6.4-1.2c1.9,3.3,4.2,6.8,6.6,10c3.1-1,4.4-1.6,7.3-2.8c-0.5-4.7-1.1-8.4-1.8-11.8c3.3-1.9,4.4-2.7,5.5-3.5
	C368.1,192.1,371.1,194.3,374.8,196.7z M343.2,171.1c-13.7,4.9-29-2.5-34.1-16.7c-1.9-5.3-2.1-10.8-0.9-15.8c2-8.4,8-15.6,16.6-18.6
	c13.7-4.9,29,2.5,34.1,16.6c2.7,7.5,2,15.3-1.3,21.8C354.6,164.1,349.6,168.8,343.2,171.1z"/>
<g id="cogs1" class="st0">
	<g>
		<path d="M138.4,148.9c2.6-2.2,4.7-4.2,5.8-5.4c-1.7-3.6-3.7-7.2-5.6-10.3c2-2.2,3.4-4,4.3-5.3c3.4,1.2,7.4,2.4,11.3,3.4
			c0.8-1.2,2.3-3.4,4-6.8c-4-4.3-7.1-7.1-8.3-8.3c0.5-1.2,1.6-3.5,2.6-6.3c3.7,0.2,8.2,0.2,11.8,0c0.7-2.3,0.9-3,1.1-3.8
			c0.1-0.5,0.8-3.3,0.9-3.8c-3.8-2.3-7-4-10.3-5.6c0.6-4.2,0.4-2.6,0.7-6.8c3.8-0.9,7.2-1.9,11.3-3.3c0-0.7,0-3.8-0.3-7.9
			c-3.7-1-8.1-1.9-11.5-2.5c-0.3-2.2-0.7-4.7-1.2-6.7c3.3-1.9,6.2-3.7,9.9-6.3c-0.9-3.3-1.7-5.5-2.5-7.5c-3.9,0.1-8.1,0.4-11.7,0.9
			c-0.6-1.5-1.6-3.4-3.1-6.1c2.6-2.7,5.3-5.8,7.7-8.9c-0.9-1.4-2.4-3.8-4.5-6.5c-3.8,1.2-7.5,2.6-11,4.1c-2.1-2.5-3.4-3.7-4.6-5
			c1.7-3.3,3.5-7.1,4.9-10.7c-2.6-2.3-4.7-4-6.1-5c-3.2,2.1-6.5,4.6-9.4,7.1c-1.9-1.3-3.8-2.4-5.9-3.5c0.9-4.4,1.3-7.8,1.7-11.6
			c-1.2-0.5-4-1.9-7.3-3c-2.3,2.8-4.9,6.3-7,9.4c-1.2-0.3-4-1.2-6.6-1.7c-0.4-4.3-1-8-1.6-11.6c-4.7-0.6-3-0.4-7.8-0.9
			c-1.5,3.6-2.8,7-4.1,11C83.2,13.7,80.2,14,79,14c-1.4-3.5-3.2-7.6-4.8-10.7c-3.7,0.5-6.6,1.1-7.8,1.4C66,8.5,65.7,12,65.6,16.4
			c-3.3,0.9-5.3,1.7-6.5,2.2c-2.3-3-5.1-6.2-7.7-8.9c-1.6,0.7-4.1,1.9-7.1,3.5c0.7,3.8,1.5,7.9,2.5,11.5c-3,1.9-4.5,3-5.6,3.9
			c-3.1-2.2-6.4-4.4-9.9-6.4c-2.6,2.2-4.7,4.2-5.8,5.4c1.7,3.5,3.7,7.1,5.6,10.3c-2,2.2-3.4,4-4.3,5.3c-3.4-1.2-7.4-2.4-11.3-3.4
			c-0.8,1.2-2.3,3.4-4,6.8c4,4.3,7.1,7.1,8.3,8.3c-0.5,1.2-1.6,3.5-2.6,6.3c-3.5-0.2-8-0.2-11.8,0c-0.7,2.3-0.9,3-1.1,3.8
			c-0.1,0.5-0.8,3.3-0.9,3.8c3.8,2.3,7,4,10.3,5.6c-0.6,4.2-0.4,2.6-0.7,6.8C9.6,82.2,6.1,83.1,2,84.5c0,0.6,0,3.6,0.3,7.9
			c3.6,1,8,1.9,11.5,2.5c0.4,3.1,0.9,5.6,1.2,6.7c-3.3,1.9-6.2,3.7-9.9,6.3c0.9,3.3,1.7,5.5,2.5,7.5c3.9-0.1,8.1-0.4,11.7-0.9
			c0.6,1.4,1.5,3.4,3.1,6.1c-2.6,2.7-5.3,5.8-7.7,8.9c0.8,1.4,2.4,3.7,4.5,6.5c3.7-1.2,7.5-2.6,11-4.1c1.6,1.9,2.8,3.2,4.6,5
			c-1.7,3.3-3.5,7.1-4.9,10.7c2.6,2.3,4.8,4,6.1,5c3.1-2.1,6.5-4.6,9.4-7.1c1.2,0.8,2.9,1.9,5.9,3.5c-1.1,5.8-1.5,10.1-1.7,11.6
			c2,0.9,4.5,2,7.3,3c2.3-2.8,4.9-6.3,7-9.4c1.2,0.3,4.1,1.2,6.6,1.7c0.4,4.3,1,8,1.6,11.6c4.7,0.6,3,0.4,7.8,0.9
			c1.5-3.6,2.8-7,4.1-11c2.7,0.1,5.7-0.2,6.8-0.2c1.4,3.5,3.2,7.6,4.8,10.7c3.8-0.5,6.6-1.1,7.8-1.4c0.4-3.3,0.7-6.9,0.8-11.7
			c3.2-0.9,5.3-1.7,6.5-2.2c2.3,3,5.1,6.1,7.7,8.9c1.6-0.7,4.1-1.9,7.1-3.5c-0.7-3.8-1.5-7.8-2.5-11.5c1.5-1,3.2-2,5.6-3.9
			C131.6,144.7,135,146.9,138.4,148.9z M86,117.1C68.6,117.6,54,104,53.5,86.6C52.9,69.2,66.6,54.6,84,54.1
			c17.4-0.6,31.9,13.1,32.5,30.5C117,102,103.4,116.5,86,117.1z"/>
	</g>
	<line class="st1" x1="2" y1="222.3" x2="2" y2="186.3"/>
	<line class="st1" x1="221.9" y1="2.8" x2="185.9" y2="2.8"/>
	<line class="st1" x1="221.9" y1="168.3" x2="185.9" y2="168.3"/>
	<line class="st1" x1="167.9" y1="222.3" x2="167.9" y2="186.3"/>
</g>
<path id="cogs2" class="st0" d="M250.2,206.5c3.8-3.3,4.1-3.7,5.8-5.4c-0.7-1.4-2.7-5.5-5.9-10.4c1.1-1.3,2.6-3.4,3.9-5.3
	c3.6,1.2,7.6,2.2,11.4,2.9c0.8-1.3,2.5-4.9,3.5-7.2c-4.2-4-7.7-6.5-9.1-7.6c0.8-2.5,1.6-5.6,1.7-6.4c5.9-0.4,10.4-1.2,11.6-1.4
	c0.5-3.8,0.6-5,0.7-8c-3-1.3-8-2.9-11.2-3.8c-0.1-1.8-0.1-3.2-0.7-6.6c2.4-1.2,5.8-2.8,10.2-5.6c-0.4-1.8-1.4-5.6-2.2-7.8
	c-5.9-0.1-10.1,0.4-11.7,0.6c-1.4-3.2-2.2-4.5-2.9-6c2.3-2.5,5.7-6.5,7.5-9c-2.8-4.1-3.8-5.2-4.8-6.5c-3.4,1.4-6.7,2.8-10.6,4.8
	c-0.8-1-3.3-3.3-4.9-4.5c1-2.5,2.3-6.1,3.7-11.3c-2.1-1.6-5.5-3.7-6.8-4.3c-2.8,2.6-5.7,5.6-8.1,8.5c-2.2-1-4.5-2-6.1-2.5
	c0.1-4.6-0.2-8.2-0.5-11.9c-3.8-1-5.4-1.2-7.8-1.6c-2,4.1-3.3,7.4-4.5,10.9c-3.2-0.2-4.4-0.1-6.5,0c-1.3-3.6-2.7-7-4.7-11
	c-1.8,0.2-4.2,0.5-7.7,1.4c0,0-0.3,3-0.3,6c-0.1,3,0,6,0,6s-0.2,0.1-0.5,0.2c-1.9,0.6-4.5,1.7-5.6,2.2c-3-3.5-5.7-6.2-8.3-8.6
	c-3.9,2.2-4.8,2.9-6.7,4.2c1.1,3.7,2.3,7.3,3.9,11.3c-1,0.8-2.8,2.4-4.8,4.5c-1.4-0.7-5.2-2.8-10.7-5c-1.2,1.4-3.6,4.6-4.7,6.4
	c2.3,3.1,5,6.4,7.6,9.2c-0.6,1.1-2.1,4.1-2.9,6c-4.6-0.6-8.1-0.7-11.7-0.8c-0.9,2.8-1.7,5.7-2.1,7.7c4,2.5,7.1,4.2,10.3,5.8
	c-0.5,3.4-0.5,5-0.5,6.6c-3.3,0.8-8.2,2.5-11.1,3.6c0.1,1.2,0.2,4.5,0.8,8c1.5,0.3,5.8,1.2,11.6,1.6c0.4,1.9,1.4,5.3,1.9,6.4
	c-3.6,2.7-6.3,5-9,7.5c1.3,3.2,2.9,6,3.6,7.3c3.2-0.5,8.2-1.8,11.3-2.7c1,1.5,1.7,2.6,4,5.3c-2,3.2-3.7,6.2-5.7,10.3
	c1.2,1.3,3.5,3.5,5.9,5.5c1.5-1,5.1-3.2,9.5-6.8c1.8,1.3,4.6,3,5.6,3.5c-0.7,3.7-1.3,7.9-1.6,11.8c2.8,1.4,6.2,2.6,7.4,3
	c3.5-4.7,5.6-8.5,6.4-9.9c2.6,0.7,4.9,1.1,6.4,1.3c0.7,4.3,1.6,8,2.7,11.7c4.3,0.2,5.6,0.2,7.9,0c1-3.7,1.8-7.3,2.4-11.6
	c2.9-0.4,3.9-0.6,6.4-1.2c1.9,3.3,4.2,6.8,6.6,10c3.1-1,4.4-1.6,7.3-2.8c-0.5-4.7-1.1-8.4-1.8-11.8c3.3-1.8,4.4-2.7,5.5-3.5
	C243.5,201.9,246.4,204.1,250.2,206.5z M218,178.7c-13.3,4.8-28-2.4-32.9-16.1c-4.9-13.7,1.9-28.6,15.2-33.3
	c13.3-4.8,28,2.4,32.9,16.1S231.3,174,218,178.7z"/>
<path id="cogs5" class="st0" d="M295.5,97.1c0.1-0.1,0.1-0.1,0.2-0.2l0.4-0.5l-0.1-0.2c0,0-0.3-0.7-0.9-1.7
	c-0.7-1.3-1.4-2.5-2.1-3.5c-1.4-2-2.9-3.8-3.5-4.4l0.7-1.2l0.2-0.3l0.4-0.8l0.4-0.8c0-0.1,0.1-0.2,0.1-0.3c0,0,0.4-1.2,0.4-1.3
	c0.8,0,3.1,0,5.6-0.2c0.6-0.1,1.2-0.1,1.9-0.2c0.7-0.1,1.5-0.3,2.2-0.4c1.1-0.2,1.8-0.4,1.8-0.4l0.2-0.1l0.2-1.6
	c0-0.9,0.1-2,0.1-3.1c-0.1-1.1-0.1-2.3-0.2-3.1l-0.3-1.6l-0.2,0c0,0-0.8-0.2-1.8-0.4c-1-0.2-2.4-0.4-4.1-0.5c-2.5-0.2-4.8-0.1-5.6,0
	c0-0.1-0.5-1.3-0.5-1.3c0-0.1-0.1-0.2-0.1-0.3l-0.4-0.8l-0.4-0.8l-0.9-1.5c0.5-0.6,2-2.4,3.3-4.5c0.7-1,1.3-2.2,2-3.6
	c0.5-1,0.8-1.7,0.8-1.7l0.1-0.2l-0.4-0.4c-0.1-0.1-0.1-0.1-0.2-0.2c-0.1-0.2-0.3-0.4-0.6-0.5c-0.2-0.2-0.4-0.3-0.6-0.5
	c-0.5-0.5-1.1-1-1.8-1.5l-1.3-1l-0.6-0.4l-0.6-0.4l-1.4-0.8l-0.2,0.1c0,0-0.6,0.5-1.4,1.2c-0.9,0.8-2,1.9-2.9,2.9
	c-0.9,1-1.8,2.1-2.6,3.1c-0.4,0.6-0.8,1-0.9,1.3l-1.1-0.4l-1.8-0.4l-1-0.1c-0.1,0-0.3,0-0.4-0.1c-0.2,0-0.4-0.1-0.6-0.1l-0.2,0
	c-0.2-0.8-0.7-3.1-1.5-5.4c-0.9-2.7-2.3-5.4-2.4-5.5l-0.1-0.2l-1,0.1l-0.6,0.1l-1.5,0.3c-0.5,0.1-1,0.2-1.5,0.3
	c-0.3,0.1-0.6,0.2-0.9,0.3c-0.8,0.2-1.5,0.4-2.1,0.7l-1.5,0.6l0,0.2c0,0,0,0.8,0.1,1.9c0.1,1.3,0.2,2.8,0.4,4.1
	c0.2,1.3,0.5,2.8,0.8,3.9c0.2,0.7,0.3,1.2,0.4,1.5l-1,0.6l-1.1,0.9l0,0c-0.4,0.3-1.4,1.3-1.9,1.8c-0.3-0.1-0.8-0.4-1.4-0.7
	c-0.7-0.4-2.2-1-3.8-1.5c-2.7-1-5.7-1.6-5.8-1.6l-0.2,0l-0.1,0.2c0,0-0.1,0.1-0.2,0.4l-0.6,1l-0.6,1.1c-0.2,0.3-0.3,0.7-0.5,1
	c-0.1,0.2-0.4,0.8-0.4,1c-0.2,0.4-0.3,0.7-0.5,1l-0.5,1.4l-0.3,1c-0.1,0.2-0.1,0.4-0.1,0.4l-0.1,0.2l0.2,0.1c0,0,2.5,1.9,5,3.4
	c1.4,0.8,2.9,1.5,3.6,1.8c0.7,0.3,1.2,0.5,1.4,0.6l-0.1,0.6l0,0.6l-0.1,1.4l0.1,1.5l0,0.5l0.1,0.7c-0.3,0.1-0.8,0.4-1.4,0.7
	c-0.7,0.3-2.1,1.1-3.5,2c-2.5,1.5-4.8,3.5-4.8,3.5l-0.2,0.1l0.1,0.2c0,0,0,0.1,0.1,0.4l0.4,1l0.5,1.3c0.1,0.3,0.3,0.7,0.5,1
	c0.1,0.2,0.4,0.8,0.5,1c0.2,0.3,0.3,0.7,0.5,1l0.8,1.2l0.6,0.9c0.1,0.2,0.2,0.4,0.2,0.4l0.1,0.2l0.2,0c0,0,3-0.7,5.7-1.8
	c1.5-0.6,3-1.3,3.7-1.7c0.6-0.3,1.1-0.6,1.4-0.7c0.5,0.5,1.5,1.5,2,1.7l0,0l1.1,0.8l1,0.6c-0.1,0.3-0.2,0.8-0.4,1.5
	c-0.3,1.2-0.5,2.6-0.6,4c-0.2,1.3-0.3,2.8-0.3,4.1c0,1.1,0,1.9,0,1.9l0,0.2l1.5,0.5c0.6,0.2,1.3,0.4,2.1,0.6
	c0.3,0.1,0.6,0.1,0.9,0.2c0.5,0.1,1,0.2,1.5,0.3l1.6,0.2l0.6,0.1l1.1,0l0.1-0.2c0,0,1.3-2.8,2.2-5.6c0.7-2.3,1.2-4.7,1.3-5.5l0.2,0
	c0.1,0,0.2,0,0.2,0c0.1,0,0.2,0,0.4-0.1c0.1,0,0.3,0,0.4-0.1l1-0.2l1.8-0.5l1.1-0.4c0.2,0.2,0.5,0.7,1,1.3c0.8,1,1.8,2,2.7,3
	c0.9,0.9,2.1,2,3.1,2.8c0.9,0.7,1.5,1.1,1.5,1.2l0.2,0.1l1.6-1l0.4-0.3l0.6-0.5l1.3-1c0.6-0.5,1.2-1.1,1.7-1.5
	c0.2-0.2,0.4-0.4,0.6-0.6C295.2,97.4,295.4,97.2,295.5,97.1z M279.9,65.2c0.2,0.1,0.4,0.3,0.7,0.4c0.2,0.1,0.3,0.2,0.5,0.4
	c0.2,0.2,0.4,0.3,0.6,0.5c0.2,0.1,0.3,0.3,0.5,0.4c0.2,0.2,0.4,0.4,0.5,0.6c0.1,0.2,0.3,0.3,0.4,0.5c0.2,0.2,0.3,0.4,0.5,0.6
	c0.1,0.2,0.3,0.4,0.4,0.5c0.1,0.2,0.3,0.4,0.4,0.6c0.1,0.2,0.2,0.4,0.3,0.6c0.1,0.2,0.2,0.4,0.3,0.6c0.1,0.2,0.2,0.4,0.3,0.7
	c0.1,0.2,0.2,0.4,0.2,0.7c0.1,0.2,0.1,0.4,0.2,0.7c0.1,0.2,0.1,0.5,0.2,0.7l-5,0.7l-3.2,0.7c-0.2-1.3-1-2.3-2-2.8l4.1-7.3
	C279.6,65.1,279.8,65.2,279.9,65.2z M275.4,78.2l-0.4-0.5c0.1-0.1,0.1-0.1,0.2-0.2c0.1-0.1,0.1-0.1,0.2-0.2c0.1-0.1,0.1-0.2,0.2-0.2
	c0-0.1,0.1-0.1,0.1-0.2c0-0.1,0.1-0.2,0.1-0.3c0-0.1,0.1-0.1,0.1-0.2c0-0.1,0-0.2,0-0.3c0-0.1,0-0.1,0-0.2l0.7,0
	C276.5,76.8,276.1,77.6,275.4,78.2z M271.4,73.6l0.5,0.6c-0.1,0-0.1,0.1-0.1,0.2c-0.1,0.1-0.1,0.1-0.2,0.2c0,0.1-0.1,0.1-0.1,0.2
	c-0.1,0.1-0.1,0.2-0.1,0.3c0,0.1,0,0.1-0.1,0.2c0,0.1-0.1,0.2-0.1,0.3c0,0.1,0,0.2,0,0.2c0,0.1,0,0.2,0,0.2l-0.7,0
	C270.3,75,270.7,74.2,271.4,73.6z M274.2,73.7c-0.1,0-0.2,0-0.2,0c-0.1,0-0.2,0-0.2-0.1c-0.1,0-0.2,0-0.3,0c-0.1,0-0.2,0-0.2,0
	c-0.1,0-0.2,0-0.2,0c-0.1,0-0.2,0-0.3,0.1c-0.1,0-0.1,0.1-0.2,0.1c-0.1,0-0.1,0.1-0.2,0.1l-0.4-0.7c0.3-0.2,0.7-0.3,1.1-0.4
	c0.5-0.1,1,0,1.5,0.1L274.2,73.7z M271.1,76.4c0,0.1,0,0.1,0.1,0.2c0,0.1,0.1,0.2,0.1,0.3c0,0.1,0.1,0.1,0.1,0.2
	c0,0.1,0.1,0.2,0.2,0.3c0,0.1,0.1,0.1,0.2,0.2c0.1,0.1,0.1,0.1,0.2,0.2c0.1,0.1,0.1,0.1,0.2,0.1c0.1,0,0.1,0.1,0.2,0.1l-0.3,0.6
	c-0.8-0.4-1.3-1.1-1.5-2L271.1,76.4z M274.9,73.2c0.8,0.4,1.3,1.2,1.5,2.1l-0.7,0.1l0,0c0-0.1-0.1-0.2-0.1-0.2c0-0.1,0-0.1-0.1-0.2
	c0-0.1-0.1-0.2-0.1-0.3c0-0.1-0.1-0.1-0.1-0.2c-0.1-0.1-0.1-0.1-0.2-0.2c-0.1-0.1-0.1-0.1-0.2-0.2c-0.1-0.1-0.2-0.1-0.2-0.2
	c-0.1,0-0.1-0.1-0.2-0.1L274.9,73.2z M272.7,78.2c0.1,0,0.1,0,0.2,0c0.1,0,0.2,0,0.3,0.1c0.1,0,0.2,0,0.3,0c0.1,0,0.2,0,0.3,0
	c0.1,0,0.2,0,0.3-0.1c0.1,0,0.2,0,0.3-0.1c0.1,0,0.2-0.1,0.2-0.1c0.1,0,0.1-0.1,0.2-0.1l0.3,0.6c-0.3,0.2-0.7,0.3-1.1,0.4
	c-0.5,0.1-1,0-1.4-0.1L272.7,78.2z M267.4,65c0.2-0.1,0.4-0.2,0.6-0.3c0.2-0.1,0.5-0.2,0.7-0.3c0.2-0.1,0.4-0.2,0.6-0.2
	c0.3-0.1,0.5-0.2,0.8-0.2c0.2-0.1,0.4-0.1,0.6-0.2c0.2-0.1,0.5-0.1,0.7-0.1c0.2,0,0.5-0.1,0.7-0.1c0.2,0,0.5,0,0.7,0
	c0.3,0,0.5,0,0.8,0c0.2,0,0.4,0,0.6,0c0.3,0,0.5,0,0.8,0.1c0.2,0,0.4,0.1,0.6,0.1c0.3,0,0.5,0.1,0.8,0.2c0.2,0,0.4,0.1,0.6,0.2
	c0.2,0,0.3,0.1,0.5,0.2l-2.7,7.9c-0.6-0.2-1.3-0.3-2-0.2c-0.5,0.1-1,0.3-1.5,0.6l-4.3-7.1C267.1,65.1,267.3,65,267.4,65z
	 M260.9,76.1c0-0.2,0-0.3,0-0.5c0-0.2,0-0.4,0-0.6c0-0.3,0.1-0.5,0.1-0.8c0-0.2,0.1-0.4,0.1-0.6c0.1-0.3,0.1-0.5,0.2-0.8
	c0.1-0.2,0.1-0.4,0.2-0.6c0.1-0.2,0.2-0.5,0.3-0.7c0.1-0.2,0.2-0.4,0.2-0.6c0.1-0.2,0.2-0.4,0.3-0.7c0.1-0.2,0.2-0.4,0.3-0.6
	c0.1-0.2,0.2-0.4,0.4-0.6c0.1-0.2,0.3-0.4,0.4-0.6c0.1-0.2,0.3-0.4,0.4-0.5c0.2-0.2,0.3-0.4,0.5-0.5c0.2-0.2,0.3-0.3,0.5-0.5
	c0.1-0.1,0.2-0.2,0.3-0.3l5.5,6.3c-0.9,0.8-1.4,2-1.4,3.2L260.9,76.1z M267,86.7c-0.2-0.1-0.4-0.2-0.6-0.4c-0.2-0.1-0.4-0.3-0.6-0.4
	c-0.2-0.1-0.4-0.3-0.6-0.5c-0.2-0.2-0.3-0.3-0.5-0.5c-0.2-0.2-0.3-0.3-0.5-0.5c-0.2-0.2-0.3-0.4-0.5-0.5c-0.1-0.2-0.3-0.3-0.4-0.5
	c-0.1-0.2-0.3-0.4-0.4-0.6c-0.1-0.2-0.2-0.4-0.3-0.5c-0.1-0.2-0.2-0.5-0.4-0.7c-0.1-0.2-0.2-0.4-0.3-0.6c-0.1-0.2-0.2-0.5-0.3-0.7
	c-0.1-0.2-0.1-0.4-0.2-0.6c-0.1-0.3-0.1-0.5-0.2-0.8c0-0.1-0.1-0.3-0.1-0.4l8.2-1.6c0.3,1.2,1,2.2,2.1,2.7l-4.1,7.4
	C267.2,86.8,267.1,86.7,267,86.7z M279.6,86.8c-0.2,0.1-0.4,0.2-0.5,0.3c-0.2,0.1-0.4,0.2-0.5,0.2c-0.2,0.1-0.4,0.2-0.6,0.2
	c-0.2,0.1-0.4,0.1-0.6,0.2c-0.2,0.1-0.4,0.1-0.6,0.2c-0.2,0.1-0.4,0.1-0.6,0.2c-0.2,0-0.3,0.1-0.5,0.1c-0.3,0.1-0.6,0.1-0.9,0.1
	c-0.3,0-0.5,0.1-0.8,0.1c-0.3,0-0.5,0-0.8,0c-0.3,0-0.5,0-0.8,0c-0.3,0-0.5-0.1-0.8-0.1c-0.3,0-0.5-0.1-0.8-0.1
	c-0.3-0.1-0.5-0.1-0.8-0.2c-0.2-0.1-0.4-0.1-0.5-0.2l2.7-8c0.6,0.2,1.3,0.3,1.9,0.2c0.5-0.1,1-0.3,1.4-0.5l4.4,7.3
	C279.8,86.7,279.7,86.8,279.6,86.8z M282,85c-0.1,0.1-0.2,0.2-0.3,0.3l-5.6-6.4c0.9-0.8,1.4-1.9,1.4-3.1l8.4-0.2c0,0.1,0,0.3,0,0.4
	c0,0.3,0,0.5,0,0.8c0,0.2,0,0.4-0.1,0.6c0,0.3-0.1,0.5-0.1,0.8c0,0.2-0.1,0.4-0.1,0.6c-0.1,0.3-0.1,0.5-0.2,0.8
	c-0.1,0.2-0.1,0.4-0.2,0.6c-0.1,0.2-0.2,0.5-0.3,0.7c-0.1,0.2-0.2,0.4-0.3,0.6c-0.1,0.2-0.2,0.4-0.3,0.6c-0.1,0.2-0.2,0.4-0.4,0.6
	c-0.1,0.2-0.3,0.4-0.4,0.6c-0.1,0.2-0.3,0.4-0.5,0.6c-0.1,0.2-0.3,0.4-0.5,0.5C282.4,84.7,282.2,84.9,282,85z"/>
</svg>
