<!-- Generator: Adobe Illustrator 24.0.0, SVG Export Plug-In  -->
<svg version="1.1" xmlns="http://www.w3.org/2000/svg" xmlns:xlink="http://www.w3.org/1999/xlink" x="0px" y="0px" width="942px"
	 height="942px" viewBox="0 0 942 942" style="enable-background:new 0 0 942 942;" xml:space="preserve">
<style type="text/css">
	.st0{opacity:2.000000e-02;}
	.st1{fill:#78AFFF;}
	.st2{opacity:4.000000e-02;}
	.st3{opacity:6.000000e-02;}
	.st4{opacity:7.000000e-02;}
	.st5{opacity:8.000000e-02;}
	.st6{opacity:0.1;}
	.st7{opacity:0.11;}
	.st8{opacity:0.12;}
	.st9{opacity:0.14;}
	.st10{opacity:0.16;}
	.st11{opacity:0.19;}
	.st12{opacity:0.22;}
	.st13{opacity:0.25;}
	.st14{opacity:0.26;}
	.st15{opacity:0.27;}
	.st16{opacity:0.28;}
	.st17{opacity:0.29;}
	.st18{opacity:0.3;}
	.st19{opacity:0.32;}
	.st20{opacity:0.33;}
	.st21{opacity:0.35;}
	.st22{opacity:0.37;}
	.st23{fill:#FE8A17;}
	.st24{fill:#D0D98B;}
	.st25{fill:#26DFFD;}

    .st1{animation:st 5s linear infinite; transform-origin: center;  transform: scale(0.9);}

    .rotade{animation:rotade 10s linear infinite; transform-origin: center;  }


.st21 .st1{animation-delay:0.25s;}
.st20 .st1{animation-delay:0.5s;}
.st19 .st1{animation-delay:0.75s;}
.st18 .st1{animation-delay:1s;}
.st17 .st1{animation-delay:1.25s;}
.st16 .st1{animation-delay:1.5s;}
.st15 .st1{animation-delay:1.75s;}
.st14 .st1{animation-delay:2s;}
.st13 .st1{animation-delay:2.25s;}
.st12 .st1{animation-delay:2.5s;}
.st11 .st1{animation-delay:2.75s;}
.st10 .st1{animation-delay:3s;}
.st9 .st1{animation-delay:3.25s;}
.st8 .st1{animation-delay:3.5s;}
.st7 .st1{animation-delay:3.75s;}
.st6 .st1{animation-delay:4s;}
.st5 .st1{animation-delay:4.25s;}
.st4 .st1{animation-delay:4.5s;}
.st3 .st1{animation-delay:4.75s;}
.st2 .st1{animation-delay:5s;}

@keyframes st{
  0%{ opacity: 1; 
    transform: scale(0.9);
  }
  50%{ opacity: 0.3; 
    transform: scale(1.0);
  }
 75%{ opacity:0.3; 
    transform: scale(0.8);
  }
  100%{ opacity: 1; 
    transform: scale(0.9);
  }
}

@keyframes rotade{
  0%{ opacity: 1; 
    transform: ro;
  }
  100%{ opacity: 1; 
    transform: rotate(360deg);
  }
}
</style>
<defs>
</defs>
<g class="st0">
	<path class="st1" d="M471,827.3c-48.1,0-94.8-9.4-138.7-28c-42.4-17.9-80.5-43.6-113.2-76.3c-32.7-32.7-58.4-70.8-76.3-113.2
		c-18.6-43.9-28-90.6-28-138.7c0-48.1,9.4-94.8,28-138.7c17.9-42.4,43.6-80.5,76.3-113.2c32.7-32.7,70.8-58.4,113.2-76.3
		c43.9-18.6,90.6-28,138.7-28s94.8,9.4,138.7,28c42.4,17.9,80.5,43.6,113.2,76.3s58.4,70.8,76.3,113.2c18.6,43.9,28,90.6,28,138.7
		c0,48.1-9.4,94.8-28,138.7c-17.9,42.4-43.6,80.5-76.3,113.2c-32.7,32.7-70.8,58.4-113.2,76.3C565.8,817.9,519.2,827.3,471,827.3z
		 M471,115.4C275,115.4,115.4,275,115.4,471c0,196.1,159.5,355.6,355.6,355.6S826.6,667.1,826.6,471
		C826.6,275,667.1,115.4,471,115.4z"/>
</g>
<g class="st0">
	<path class="st1" d="M471,942c-63.6,0-125.4-12.4-183.4-37c-56.1-23.7-106.5-57.7-149.7-100.9C94.6,760.9,60.7,710.5,37,654.4
		C12.4,596.4,0,534.7,0,471c0-63.6,12.4-125.4,37-183.4c23.7-56.1,57.7-106.5,100.9-149.7C181.1,94.6,231.5,60.7,287.6,37
		C345.7,12.4,407.4,0,471,0s125.4,12.4,183.4,37c56.1,23.7,106.5,57.7,149.7,100.9c43.2,43.2,77.2,93.6,100.9,149.7
		c24.5,58.1,37,119.8,37,183.4c0,63.6-12.4,125.4-37,183.4c-23.7,56.1-57.7,106.5-100.9,149.7c-43.2,43.2-93.6,77.2-149.7,100.9
		C596.4,929.6,534.7,942,471,942z M471,0.9C211.8,0.9,0.9,211.8,0.9,471c0,259.2,210.9,470.1,470.1,470.1S941.1,730.2,941.1,471
		C941.1,211.8,730.2,0.9,471,0.9z"/>
</g>
<g class="st2">
	<path class="st1" d="M471,813.6c-46.3,0-91.2-9.1-133.4-26.9c-40.8-17.2-77.4-41.9-108.9-73.4c-31.5-31.5-56.1-68.1-73.4-108.9
		c-17.8-42.2-26.9-87.1-26.9-133.4s9.1-91.2,26.9-133.4c17.2-40.8,41.9-77.4,73.4-108.9c31.5-31.4,68.1-56.1,108.9-73.4
		c42.2-17.8,87.1-26.9,133.4-26.9c46.3,0,91.2,9.1,133.4,26.9c40.8,17.2,77.4,41.9,108.9,73.4c31.5,31.5,56.1,68.1,73.4,108.9
		c17.8,42.2,26.9,87.1,26.9,133.4s-9.1,91.2-26.9,133.4c-17.2,40.8-41.9,77.4-73.4,108.9c-31.5,31.4-68.1,56.1-108.9,73.4
		C562.2,804.5,517.3,813.6,471,813.6z M471,129.1c-188.5,0-341.9,153.4-341.9,341.9S282.5,812.9,471,812.9S812.9,659.5,812.9,471
		S659.5,129.1,471,129.1z"/>
</g>
<g class="st3">
	<path class="st1" d="M471,799.9c-44.4,0-87.5-8.7-128.1-25.8c-39.2-16.6-74.3-40.3-104.5-70.4c-30.2-30.2-53.9-65.4-70.4-104.5
		c-17.1-40.6-25.8-83.6-25.8-128.1c0-44.4,8.7-87.5,25.8-128.1c16.6-39.2,40.3-74.3,70.4-104.5c30.2-30.2,65.4-53.9,104.5-70.5
		c40.6-17.1,83.6-25.8,128.1-25.8s87.5,8.7,128.1,25.8c39.2,16.6,74.3,40.3,104.5,70.5c30.2,30.2,53.9,65.4,70.4,104.5
		c17.1,40.5,25.8,83.6,25.8,128.1c0,44.4-8.7,87.5-25.8,128.1c-16.6,39.2-40.3,74.3-70.4,104.5c-30.2,30.2-65.4,53.9-104.5,70.4
		C558.5,791.2,515.5,799.9,471,799.9z M471,142.8C290,142.8,142.8,290,142.8,471S290,799.2,471,799.2S799.2,652,799.2,471
		S652,142.8,471,142.8z"/>
</g>
<g class="st4">
	<path class="st1" d="M471,786.2c-84.3,0-163.4-32.8-222.9-92.3c-59.5-59.5-92.3-138.7-92.3-222.9c0-84.3,32.8-163.4,92.3-222.9
		c59.5-59.5,138.7-92.3,222.9-92.3c84.3,0,163.4,32.8,222.9,92.3s92.3,138.7,92.3,222.9c0,84.3-32.8,163.4-92.3,222.9
		C634.4,753.5,555.3,786.2,471,786.2z M471,156.5c-173.4,0-314.5,141.1-314.5,314.5S297.6,785.5,471,785.5
		c173.4,0,314.5-141.1,314.5-314.5S644.4,156.5,471,156.5z"/>
</g>
<g class="st5">
	<path class="st1" d="M471,772.5c-80.6,0-156.3-31.3-213.3-88.3c-56.9-56.9-88.3-132.6-88.3-213.3c0-80.6,31.3-156.3,88.3-213.3
		c56.9-56.9,132.7-88.3,213.3-88.3c80.6,0,156.3,31.3,213.3,88.3c56.9,56.9,88.3,132.7,88.3,213.3c0,80.6-31.3,156.3-88.3,213.3
		C627.4,741.2,551.6,772.5,471,772.5z M471,170.2c-165.9,0-300.8,134.9-300.8,300.8c0,165.9,134.9,300.8,300.8,300.8
		S771.8,636.9,771.8,471C771.8,305.1,636.9,170.2,471,170.2z"/>
</g>
<g class="st6">
	<path class="st1" d="M471,758.8c-76.9,0-149.2-29.9-203.6-84.3C213.1,620.3,183.2,548,183.2,471c0-76.9,29.9-149.2,84.3-203.6
		c54.3-54.3,126.6-84.3,203.6-84.3c76.9,0,149.2,29.9,203.6,84.3c54.3,54.3,84.3,126.6,84.3,203.6c0,76.9-29.9,149.2-84.3,203.6
		C620.3,728.9,548,758.8,471,758.8z M471,183.9c-158.3,0-287.1,128.8-287.1,287.1S312.7,758.1,471,758.1S758.1,629.3,758.1,471
		S629.3,183.9,471,183.9z"/>
</g>
<g class="st7">
	<path class="st1" d="M471,745.1c-73.3,0-142.1-28.5-193.9-80.2c-51.7-51.7-80.2-120.6-80.2-193.9c0-73.3,28.5-142.1,80.2-193.9
		s120.6-80.2,193.9-80.2c73.3,0,142.1,28.5,193.9,80.2c51.7,51.7,80.2,120.6,80.2,193.9c0,73.3-28.5,142.1-80.2,193.9
		C613.2,716.7,544.3,745.1,471,745.1z M471,197.6c-150.8,0-273.4,122.7-273.4,273.4c0,150.8,122.7,273.4,273.4,273.4
		S744.4,621.8,744.4,471C744.4,320.2,621.8,197.6,471,197.6z"/>
</g>
<g class="st8">
	<path class="st1" d="M471,731.5c-69.6,0-135-27.1-184.2-76.2c-49.2-49.2-76.2-114.6-76.2-184.2c0-69.6,27.1-135,76.2-184.2
		c49.2-49.2,114.6-76.2,184.2-76.2c69.6,0,135,27.1,184.2,76.2c49.2,49.2,76.2,114.6,76.2,184.2c0,69.6-27.1,135-76.2,184.2
		C606.1,704.4,540.6,731.5,471,731.5z M471,211.3c-143.2,0-259.7,116.5-259.7,259.7c0,143.2,116.5,259.7,259.7,259.7
		c143.2,0,259.7-116.5,259.7-259.7C730.8,327.8,614.2,211.3,471,211.3z"/>
</g>
<g class="st9">
	<path class="st1" d="M471,717.8c-66,0-127.9-25.7-174.5-72.2C249.9,599,224.3,537,224.3,471c0-66,25.7-127.9,72.2-174.5
		c46.6-46.6,108.6-72.2,174.5-72.2s127.9,25.7,174.5,72.2c46.6,46.6,72.2,108.6,72.2,174.5c0,66-25.7,127.9-72.2,174.5
		C599,692.1,537,717.8,471,717.8z M471,225C335.3,225,225,335.3,225,471S335.3,717.1,471,717.1S717.1,606.7,717.1,471
		S606.7,225,471,225z"/>
</g>
<g class="st10">
	<path class="st1" d="M471,704.1c-62.3,0-120.8-24.2-164.8-68.2c-44-44-68.2-102.5-68.2-164.8c0-62.3,24.2-120.8,68.2-164.8
		c44-44,102.5-68.2,164.8-68.2c62.3,0,120.8,24.2,164.8,68.2c44,44,68.2,102.5,68.2,164.8c0,62.3-24.2,120.8-68.2,164.8
		C591.9,679.9,533.3,704.1,471,704.1z M471,238.6c-128.1,0-232.4,104.2-232.4,232.4S342.9,703.4,471,703.4S703.4,599.1,703.4,471
		S599.1,238.6,471,238.6z"/>
</g>
<g class="st11">
	<path class="st1" d="M471,690.4c-58.6,0-113.8-22.8-155.2-64.2c-41.4-41.4-64.2-96.5-64.2-155.2c0-58.6,22.8-113.8,64.2-155.2
		c41.4-41.4,96.5-64.2,155.2-64.2c58.6,0,113.8,22.8,155.2,64.2c41.4,41.4,64.2,96.5,64.2,155.2c0,58.6-22.8,113.8-64.2,155.2
		C584.8,667.6,529.7,690.4,471,690.4z M471,252.3c-120.6,0-218.7,98.1-218.7,218.7c0,120.6,98.1,218.7,218.7,218.7
		S689.7,591.6,689.7,471C689.7,350.4,591.6,252.3,471,252.3z"/>
</g>
<g class="st12">
	<path class="st1" d="M471,676.7c-55,0-106.7-21.4-145.5-60.2c-38.8-38.8-60.2-90.5-60.2-145.5c0-55,21.4-106.7,60.2-145.5
		c38.8-38.8,90.5-60.2,145.5-60.2c55,0,106.7,21.4,145.5,60.2c38.8,38.8,60.2,90.5,60.2,145.5c0,55-21.4,106.7-60.2,145.5
		C577.7,655.3,526,676.7,471,676.7z M471,266c-113,0-205,92-205,205c0,113,92,205,205,205c113,0,205-92,205-205
		C676,358,584,266,471,266z"/>
</g>
<g class="st13">
	<path class="st1" d="M471,663c-51.3,0-99.6-20-135.8-56.2C299,570.6,279,522.3,279,471c0-51.3,20-99.6,56.2-135.8
		C371.5,299,419.7,279,471,279c51.3,0,99.6,20,135.8,56.2C643.1,371.5,663,419.7,663,471c0,51.3-20,99.6-56.2,135.8
		C570.6,643.1,522.3,663,471,663z M471,279.7c-105.5,0-191.3,85.8-191.3,191.3c0,105.5,85.8,191.3,191.3,191.3
		c105.5,0,191.3-85.8,191.3-191.3C662.3,365.5,576.5,279.7,471,279.7z"/>
</g>
<g class="st14">
	<path class="st1" d="M471,649.3c-47.7,0-92.5-18.5-126.1-52.2c-33.7-33.7-52.2-78.4-52.2-126.1c0-47.7,18.5-92.5,52.2-126.1
		c33.7-33.7,78.4-52.2,126.1-52.2c47.7,0,92.5,18.5,126.1,52.2c33.7,33.7,52.2,78.4,52.2,126.1c0,47.7-18.5,92.5-52.2,126.1
		C563.5,630.8,518.7,649.3,471,649.3z M471,293.4c-97.9,0-177.6,79.7-177.6,177.6c0,97.9,79.7,177.6,177.6,177.6
		S648.6,568.9,648.6,471C648.6,373.1,568.9,293.4,471,293.4z"/>
</g>
<g class="st15">
	<path class="st1" d="M471,635.6c-44,0-85.4-17.1-116.4-48.2c-31.1-31.1-48.2-72.4-48.2-116.4c0-44,17.1-85.4,48.2-116.4
		c31.1-31.1,72.4-48.2,116.4-48.2c44,0,85.4,17.1,116.4,48.2c31.1,31.1,48.2,72.4,48.2,116.4c0,44-17.1,85.4-48.2,116.4
		C556.4,618.5,515,635.6,471,635.6z M471,307.1c-90.4,0-163.9,73.5-163.9,163.9c0,90.4,73.5,163.9,163.9,163.9
		c90.4,0,163.9-73.5,163.9-163.9C634.9,380.6,561.4,307.1,471,307.1z"/>
</g>
<g class="st16">
	<path class="st1" d="M471,621.9c-40.3,0-78.3-15.7-106.8-44.2c-28.5-28.5-44.2-66.4-44.2-106.8s15.7-78.3,44.2-106.8
		c28.5-28.5,66.4-44.2,106.8-44.2s78.3,15.7,106.8,44.2c28.5,28.5,44.2,66.4,44.2,106.8s-15.7,78.3-44.2,106.8
		C549.3,606.3,511.4,621.9,471,621.9z M471,320.8c-82.8,0-150.2,67.4-150.2,150.2c0,82.8,67.4,150.2,150.2,150.2
		c82.8,0,150.2-67.4,150.2-150.2C621.2,388.2,553.8,320.8,471,320.8z"/>
</g>
<g class="st17">
	<path class="st1" d="M471,608.3c-36.7,0-71.2-14.3-97.1-40.2c-25.9-25.9-40.2-60.4-40.2-97.1c0-36.7,14.3-71.2,40.2-97.1
		c25.9-25.9,60.4-40.2,97.1-40.2s71.2,14.3,97.1,40.2c25.9,25.9,40.2,60.4,40.2,97.1c0,36.7-14.3,71.2-40.2,97.1
		C542.2,594,507.7,608.3,471,608.3z M471,334.5c-75.3,0-136.5,61.3-136.5,136.5c0,75.3,61.3,136.5,136.5,136.5
		S607.6,546.3,607.6,471C607.6,395.7,546.3,334.5,471,334.5z"/>
</g>
<g class="st18">
	<path class="st1" d="M471,594.6c-68.1,0-123.6-55.4-123.6-123.6c0-68.1,55.4-123.6,123.6-123.6S594.6,402.9,594.6,471
		C594.6,539.1,539.1,594.6,471,594.6z M471,348.2c-67.7,0-122.9,55.1-122.9,122.9S403.3,593.9,471,593.9
		c67.7,0,122.9-55.1,122.9-122.9S538.8,348.2,471,348.2z"/>
</g>
<g class="st19">
	<path class="st1" d="M471,579.9c-60.1,0-108.9-48.9-108.9-108.9c0-60.1,48.9-108.9,108.9-108.9S579.9,410.9,579.9,471
		C579.9,531.1,531.1,579.9,471,579.9z M471,362.7c-59.7,0-108.3,48.6-108.3,108.3S411.3,579.3,471,579.3
		c59.7,0,108.3-48.6,108.3-108.3S530.7,362.7,471,362.7z"/>
</g>
<g class="st20">
	<path class="st1" d="M471,565.4c-52,0-94.4-42.3-94.4-94.4c0-52,42.3-94.4,94.4-94.4s94.4,42.3,94.4,94.4
		C565.4,523.1,523.1,565.4,471,565.4z M471,377.2c-51.7,0-93.8,42.1-93.8,93.8s42.1,93.8,93.8,93.8c51.7,0,93.8-42.1,93.8-93.8
		S522.8,377.2,471,377.2z"/>
</g>
<g class="st21">
	<path class="st1" d="M471,551.3c-44.3,0-80.3-36-80.3-80.3c0-44.3,36-80.3,80.3-80.3c44.3,0,80.3,36,80.3,80.3
		C551.3,515.3,515.3,551.3,471,551.3z M471,391.2c-44,0-79.8,35.8-79.8,79.8s35.8,79.8,79.8,79.8c44,0,79.8-35.8,79.8-79.8
		S515,391.2,471,391.2z"/>
</g>
<g class="st22">
	<path class="st1" d="M471,537.5c-36.7,0-66.5-29.8-66.5-66.5c0-36.7,29.8-66.5,66.5-66.5s66.5,29.8,66.5,66.5
		C537.5,507.7,507.7,537.5,471,537.5z M471,404.9c-36.5,0-66.1,29.7-66.1,66.1s29.7,66.1,66.1,66.1c36.5,0,66.1-29.7,66.1-66.1
		S507.5,404.9,471,404.9z"/>
</g>
<circle class="st23 rotade" cx="635.5" cy="478.4" r="10.6"/>
<circle class="st24 rotade" cx="473.3" cy="564.9" r="10.6"/>
<circle class="st25 rotade" cx="547.8" cy="358" r="9.8"/>
<circle class="st24 rotade" cx="310.2" cy="438.5" r="7.5"/>
</svg>
