<!-- Generator: Adobe Illustrator 24.0.0, SVG Export Plug-In  -->
<svg version="1.1" xmlns="http://www.w3.org/2000/svg" xmlns:xlink="http://www.w3.org/1999/xlink" x="0px" y="0px" width="183.1px"
	 height="83.2px" viewBox="0 0 183.1 83.2" style="enable-background:new 0 0 183.1 83.2;" xml:space="preserve">
<style type="text/css">
	.st0{opacity:0.15;}
	.st1{fill:#FFFFFF;}
</style>
<defs>
</defs>
<g class="st0">
	<path class="st1" d="M84.3,0c0,0.1,0,0.1,0,0.2C84.3,0.1,84.3,0.1,84.3,0L84.3,0z"/>
	<path class="st1" d="M182.6,7.6c-0.2-0.4-0.4-0.8-0.7-1c-0.9-0.8-1.6-0.4-2.3,0.4c-8.9,12.9-22.3,20.8-37.2,25
		c-10.5,3-21.5,2.8-32.4,2.9c-1.3-0.5-2.5-1.3-3.5-2.2c1.8,1.1,3.2,1,3.2,1c0.3-0.1,0.5-0.3,0.7-0.6c1.1-1.6,0.8-4.8,0.2-6.5
		c-1.2-3-3.8-5.3-6.7-6.6c-2.5-1.1-5.1-1.7-7.8-2c-0.5-0.1,0.4,0.4,1.3,1.1c1.7,1.3,3,3.1,3.6,5.1c0.6,1.7,1.2,3.2,1.9,4.3
		c0,0,0-0.1,0-0.1c1.7,3.1,3.3,5.2,4.8,6.5C95.1,35,82.5,34.8,70,35.4c-4.9,0.2-9.9,0.5-14.7,1.5c-4.6,0.9-8.4,2.7-11.6,4.8
		C38,40,33.1,39.2,29,39.1c-2-2.9-5.7-4.8-9.2-4.4c-3.9,0.5-7.2,3.2-9.5,6.4c-1.5,2.2-2.6,4.6-4.1,6.7c-1.5,2.1-3.7,4-6.3,4.4
		c4.2,1.8,8.5,3.4,13.1,3.9c4.5,0.5,9.4-0.4,12.9-3.3c2-1.6,4.7-5.3,4.4-8.1c-0.2-1.7-1.6-2.1-3-2.3c-0.4-0.1-0.9-0.1-1.3-0.1
		c-1.8-0.1-3.7,0.3-5,0.9c-0.7,0.3-1.2,0.6-1.5,0.8c-0.3,0.2-0.4,0.3-0.5,0.3c0.1-0.1,0.2-0.2,0.4-0.4c0.3-0.3,0.8-0.7,1.4-1.1
		c1.2-0.8,3.1-1.7,5.1-2c0.5,0,0.9-0.1,1.4-0.1c0.9,0.1,1.7,0.1,2.6,0.2c5,0.6,8.7,2.2,10.6,3.1c-9.9,8.5-12.3,20.7-12.3,20.7
		c3.3-6.5,6.5-11.4,10.1-15c2.2,2.2,3.5,5.5,4.2,8.3c0.1,0.2,0.1,0.5,0.1,0.7c0.1,0.4,0.1,0.9,0.1,1.3c0,1.8-0.5,3.4-1.1,4.5
		c-0.3,0.6-0.6,1-0.8,1.3c-0.1,0.2-0.3,0.4-0.3,0.4c0-0.1,0.1-0.2,0.2-0.5c0.2-0.3,0.3-0.8,0.5-1.4c0.3-1.2,0.5-2.8,0.2-4.3
		c-0.1-0.4-0.2-0.8-0.3-1.1c-0.4-1.2-0.9-2.3-2.3-2.2c-2.3,0.1-5.1,2.8-6.3,4.7c-2,3.3-2.2,7.5-1.3,11.3c0.9,3.8,2.8,7.2,4.8,10.5
		c0-2.2,1.4-4.3,3-5.8c1.6-1.5,3.5-2.7,5.2-4.2c2.5-2.2,4.3-5.4,4.3-8.7c-0.1-3-2.1-5.8-4.8-7.2c-0.7-3.4-2.8-7.1-4-9.1
		c11.4-10,28-9.4,64.8-8.1c1.7,2.1,2.2,4.9,2.1,7.6c-0.3-2.4-1.4-3.5-1.4-3.5c-0.3-0.2-0.6-0.3-1.1-0.2c-2.2,0.1-4.8,2.7-5.8,4.5
		c-1.8,3.2-1.9,7.1-1,10.7c0.8,3,2.2,5.7,3.8,8.4c0.3,0.5,0.1-0.7,0.1-1.9c-0.1-2.4,0.6-4.8,1.9-6.9c1.1-1.8,1.9-3.3,2.5-4.8
		c0,0,0,0.1,0,0.1c3.2-7.8,2.5-11.9,1.7-13.8c2.6,0.1,5.2,0.2,8,0.3c41.3,1.5,61.2-20.6,66.4-27.5C183.1,11.5,183.4,9.4,182.6,7.6z"
		/>
</g>
</svg>
