<?xml version="1.0" encoding="utf-8"?>
<!-- Generator: Adobe Illustrator 24.0.0, SVG Export Plug-In . SVG Version: 6.00 Build 0)  -->
<svg version="1.1" id="Layer_1" xmlns="http://www.w3.org/2000/svg" xmlns:xlink="http://www.w3.org/1999/xlink" x="0px" y="0px"
	 viewBox="0 0 814 131" style="enable-background:new 0 0 814 131;" xml:space="preserve">
<style type="text/css">
	.st0{fill:url(#Path_6175_1_);}
	.st1{fill:url(#Path_6176_1_);}
	.st2{opacity:0.22;fill:none;stroke:#4F597A;stroke-linecap:round;stroke-miterlimit:10;enable-background:new    ;}
	.st3{fill:#4F597A;}
</style>
<g id="Group_186" transform="translate(-124.865 -168.067)">
	<g id="Group_132" transform="translate(124.865 168.067)">
		
			<linearGradient id="Path_6175_1_" gradientUnits="userSpaceOnUse" x1="138.1229" y1="470.5844" x2="139.5296" y2="472.2639" gradientTransform="matrix(54.068 0 0 -42.421 -7429.52 20050.0859)">
			<stop  offset="0" style="stop-color:#FF2F7F"/>
			<stop  offset="0.158" style="stop-color:#FF3779"/>
			<stop  offset="0.411" style="stop-color:#FF4E69"/>
			<stop  offset="0.725" style="stop-color:#FF7450"/>
			<stop  offset="1" style="stop-color:#FF9B36"/>
		</linearGradient>
		<path id="Path_6175" class="st0" d="M122.7,79.4L122.7,79.4l-10.3-10.3L89.8,46.5l22.6-22.7l0,0l22.7,22.7l-13.9,13.9l10.3,10.3
			l24.3-24.2L142,32.8l-19.2-19.2L112.4,3.2l0,0l-10.3,10.3l0,0l0,0l-33,33l33,33l0,0l-22.5,22.5L24.2,46.5H3.6l76,76L122.7,79.4
			L122.7,79.4z"/>
		
			<linearGradient id="Path_6176_1_" gradientUnits="userSpaceOnUse" x1="138.6613" y1="464.8789" x2="140.5321" y2="467.5431" gradientTransform="matrix(35.922 0 0 -27.025 -4847.6328 12675.3945)">
			<stop  offset="0" style="stop-color:#FF2F7F"/>
			<stop  offset="0.158" style="stop-color:#FF3779"/>
			<stop  offset="0.411" style="stop-color:#FF4E69"/>
			<stop  offset="0.725" style="stop-color:#FF7450"/>
			<stop  offset="1" style="stop-color:#FF9B36"/>
		</linearGradient>
		<path id="Path_6176" class="st1" d="M200.6,46.5l-55.4,55.4l-14.7-14.7l-10.3,10.3l25,25l76.1-76H200.6z"/>
	</g>
	<line id="Line_3" class="st2" x1="379.6" y1="210.8" x2="379.6" y2="287.8"/>
	<g id="Group_133" transform="translate(226.039 174.022)">
		<path id="Path_6291" class="st3" d="M212.7,27.1H192v37.5h20.7v-5.4h-15V47.4h14.5V42h-14.5v-9.5h15V27.1z M216,64.6h6.8l7-8.8
			l6.8,8.8h6.6l-10.1-12.8l8.7-10.9h-6.8l-5.3,6.9l-5.2-6.9H218l8.4,10.9L216,64.6z M252.6,61.9c1.7,2.1,4.3,3.4,7.1,3.5
			c6.6-0.3,11.8-5.8,11.5-12.5c0-0.1,0-0.2,0-0.3c0.4-6.4-4.4-11.9-10.8-12.3c-0.2,0-0.5,0-0.7,0c-2.7-0.1-5.3,1.1-7,3.2v-2.6h-5.5
			v36.6h5.5V61.9z M258.9,45.3c3.8,0.2,6.8,3.4,6.6,7.2c0,0.1,0,0.3,0,0.4c0.4,3.8-2.4,7.2-6.2,7.5c-0.1,0-0.2,0-0.3,0
			c-3.7,0-6.7-3-6.7-6.8c0-0.2,0-0.5,0-0.7c-0.5-3.7,2.2-7.1,5.9-7.6C258.4,45.3,258.7,45.3,258.9,45.3z M276.9,23.6v41h5.5v-41
			H276.9z M300.8,40.3c-6.7-0.2-12.4,5-12.7,11.8c0,0.2,0,0.5,0,0.7c-0.1,6.8,5.3,12.4,12.1,12.6c0.2,0,0.4,0,0.6,0
			c6.8,0.2,12.5-5.2,12.7-11.9c0-0.2,0-0.4,0-0.6c0.2-6.8-5.2-12.3-12-12.5C301.3,40.3,301,40.3,300.8,40.3z M300.8,60.4
			c-3.8,0.1-6.9-2.8-7.1-6.6c0-0.3,0-0.7,0-1c-0.4-3.8,2.3-7.1,6.1-7.6c0.3,0,0.6,0,1,0c3.8-0.1,6.9,2.8,7.1,6.6c0,0.3,0,0.6,0,1
			c0.4,3.7-2.3,7.1-6.1,7.5C301.5,60.4,301.1,60.4,300.8,60.4z M333.7,44.5c-0.6-1.2-1.6-2.2-2.7-2.9c-1.3-0.9-2.8-1.3-4.4-1.2
			c-2.2-0.1-4.3,0.7-5.8,2.3c-1.3,1.4-2,3.2-2,5.1c-0.1,1.5,0.6,3,1.7,4c1,0.9,2.1,1.5,3.3,2l2,1c0.9,0.3,1.7,0.8,2.4,1.5
			c0.5,0.5,0.7,1.1,0.7,1.8c0,0.7-0.3,1.4-0.8,1.9c-0.6,0.5-1.4,0.8-2.3,0.8c-0.9,0-1.8-0.3-2.4-0.9c-0.6-0.7-1-1.4-1.3-2.3
			l-4.5,2.1c0.6,1.7,1.6,3.2,3,4.3c1.5,1.1,3.3,1.6,5.1,1.5c2.5,0.1,4.9-0.8,6.6-2.6c1.4-1.5,2.1-3.4,2.1-5.4
			c0.1-1.6-0.6-3.2-1.7-4.4c-1-0.9-2.1-1.7-3.3-2.2l-2.8-1.4c-1.2-0.6-1.5-0.7-1.9-1c-0.5-0.3-0.8-0.8-0.8-1.4
			c0-0.5,0.2-0.9,0.5-1.2c0.5-0.4,1.1-0.6,1.7-0.6c1.4,0,2.7,0.8,3.4,2L333.7,44.5z M339.5,40.9v23.7h5.5V40.9H339.5z M338.7,31.1
			c0,1.9,1.5,3.5,3.4,3.5c0.1,0,0.1,0,0.2,0c1.9,0,3.5-1.5,3.5-3.4c0-0.1,0-0.1,0-0.2c0-1.9-1.5-3.5-3.4-3.5c-0.1,0-0.1,0-0.2,0
			c-1.9,0-3.5,1.5-3.5,3.4C338.7,31,338.7,31.1,338.7,31.1z M363.4,40.3c-6.7-0.2-12.4,5-12.7,11.8c0,0.2,0,0.5,0,0.7
			c-0.1,6.8,5.3,12.4,12.1,12.6c0.2,0,0.4,0,0.6,0c6.8,0.2,12.5-5.2,12.7-11.9c0-0.2,0-0.4,0-0.6c0.2-6.8-5.2-12.3-12-12.5
			C363.8,40.3,363.6,40.3,363.4,40.3z M363.4,60.4c-3.8,0.1-6.9-2.8-7.1-6.6c0-0.3,0-0.7,0-1c-0.4-3.8,2.3-7.1,6.1-7.6
			c0.3,0,0.6,0,1,0c3.8-0.1,6.9,2.8,7.1,6.6c0,0.3,0,0.6,0,1c0.4,3.7-2.3,7.1-6.1,7.5C364,60.4,363.7,60.4,363.4,60.4z M381.7,64.6
			h5.5V53.2c0-7.7,2.5-8,5-8c2.1,0,4.3,0.2,4.3,6.2v13.2h5.5V50.1c0.2-2.3-0.3-4.6-1.5-6.6c-1.6-2.2-4.3-3.4-7-3.2
			c-2.5-0.1-4.8,1-6.4,2.8v-2.2h-5.5V64.6z M405.3,40.9l12.3,25.4l6.6-15.1l6.6,15.1l12.3-25.4H437l-6.1,13.6l-6.6-15.6l-6.6,15.6
			l-6.1-13.6H405.3z M463,56.6c-0.6,1-1.3,1.9-2.2,2.6c-1.1,0.8-2.4,1.2-3.8,1.2c-1.6,0.1-3.1-0.4-4.2-1.5c-1.2-1.3-1.9-3-2-4.8h17
			v-0.7c0.2-3.6-1-7.2-3.3-10c-2-2-4.7-3.2-7.6-3.1c-3-0.1-5.8,1.1-7.9,3.2c-2.5,2.6-3.8,6.1-3.8,9.7c-0.1,3.4,1.2,6.6,3.5,9.1
			c2.1,2.1,5,3.2,8,3c2.4,0.1,4.9-0.6,7-1.8c1.7-1.1,3-2.6,4-4.3L463,56.6z M451.2,49.6c0.3-1.2,0.8-2.2,1.7-3c1-1,2.4-1.6,3.9-1.5
			c1.4,0,2.7,0.4,3.7,1.4c0.9,0.9,1.5,2,1.7,3.2H451.2z M479.1,23.6h-5.5v41h5.5v-2.5c1.8,2.1,4.4,3.3,7.1,3.2
			c7.3,0,11.5-6.1,11.5-12.6c0.5-6.4-4.3-11.9-10.7-12.4c-0.3,0-0.6,0-0.8,0c-2.7-0.1-5.4,1.2-7,3.4V23.6z M485.4,45.3
			c3.8,0.2,6.8,3.4,6.6,7.2c0,0.1,0,0.3,0,0.4c0.4,3.8-2.4,7.2-6.2,7.5c-0.1,0-0.2,0-0.3,0c-3.7,0-6.7-3-6.7-6.8c0-0.2,0-0.5,0-0.7
			c-0.5-3.7,2.2-7.1,5.9-7.6C484.9,45.3,485.1,45.3,485.4,45.3z M537.9,32.3c-0.9-1.7-2.1-3.1-3.7-4.2c-1.8-1.2-3.9-1.8-6-1.7
			c-5.3-0.5-10,3.5-10.5,8.8c0,0.3,0,0.6,0,0.8c-0.1,2.3,0.9,4.6,2.6,6.1c1.5,1.3,3.2,2.4,5,3.1l3.4,1.6c1.6,0.6,3.1,1.5,4.5,2.6
			c1.2,1.1,1.9,2.7,1.9,4.4c0.2,3.9-2.8,7.2-6.8,7.4c-0.3,0-0.5,0-0.8,0c-2,0.1-4-0.7-5.4-2.1c-1.2-1.3-2-3-2.3-4.8l-4.1,1.1
			c0.5,2.5,1.7,4.8,3.5,6.6c2.2,2.1,5.1,3.2,8.2,3c6.2,0.3,11.5-4.4,11.9-10.6c0-0.3,0-0.6,0-0.9c0.1-2.5-0.9-5-2.7-6.8
			c-1.7-1.5-3.7-2.7-5.8-3.5l-3.6-1.6c-1.5-0.5-2.8-1.3-3.9-2.4c-1-0.8-1.5-2-1.4-3.3c0-3.2,2.5-5.8,5.7-5.8c0.2,0,0.4,0,0.6,0
			c1.5-0.1,3,0.4,4.2,1.3c0.9,0.8,1.7,1.7,2.2,2.8L537.9,32.3z M556.9,65.3c6.6,0.2,12.2-5,12.4-11.6c0-0.2,0-0.5,0-0.7
			c0.2-6.6-5-12.1-11.6-12.3c-0.2,0-0.5,0-0.7,0c-6.6-0.2-12.2,5-12.4,11.6c0,0.2,0,0.5,0,0.7c-0.2,6.6,5.1,12.1,11.7,12.3
			C556.4,65.3,556.6,65.3,556.9,65.3z M556.9,44.3c4.5-0.1,8.2,3.5,8.2,7.9c0,0.3,0,0.5,0,0.8c0.3,4.5-3,8.3-7.5,8.6
			c-0.2,0-0.5,0-0.7,0c-4.5,0.1-8.2-3.5-8.2-8c0-0.2,0-0.5,0-0.7c-0.3-4.5,3-8.4,7.5-8.7C556.4,44.3,556.6,44.3,556.9,44.3z
			 M575.4,23.6v41h4.1v-41H575.4z M591.2,41.3h-4.1v14.1c-0.3,2.5,0.5,5.1,2.1,7c1.9,1.9,4.5,3,7.1,2.9c2.7,0,5.3-1,7.1-2.9
			c1.7-2,2.4-4.5,2.1-7V41.3h-4.1v13.6c0.2,1.7-0.2,3.5-1.1,5c-1,1.2-2.5,1.9-4.1,1.8c-1.6,0.1-3.1-0.6-4.1-1.8
			c-0.9-1.5-1.3-3.3-1.1-5L591.2,41.3z M621.6,45v-3.7h-4.1v-8.4h-4.1v8.4H611V45h2.5v19.6h4.1V45L621.6,45z M625.4,41.3v23.4h4.1
			V41.3L625.4,41.3z M624.6,32.4c0,1.6,1.3,2.9,2.9,2.9c1.6,0,2.9-1.3,2.9-2.9c0-1.6-1.3-2.9-2.9-2.9
			C625.8,29.6,624.6,30.8,624.6,32.4L624.6,32.4z M648,65.3c6.6,0.2,12.2-5,12.4-11.6c0-0.2,0-0.5,0-0.7c0.2-6.6-5-12.1-11.6-12.3
			c-0.2,0-0.5,0-0.7,0c-6.6-0.2-12.2,5-12.4,11.6c0,0.2,0,0.5,0,0.7c-0.2,6.6,5.1,12.1,11.7,12.3C647.6,65.3,647.8,65.3,648,65.3z
			 M648,44.3c4.5-0.1,8.2,3.5,8.2,7.9c0,0.3,0,0.5,0,0.8c0.3,4.5-3,8.3-7.5,8.6c-0.2,0-0.5,0-0.7,0c-4.5,0.1-8.2-3.5-8.2-8
			c0-0.2,0-0.5,0-0.7c-0.3-4.5,3-8.4,7.5-8.7C647.5,44.3,647.8,44.3,648,44.3z M666.6,64.6h4.1V52.4c-0.2-2.2,0.4-4.5,1.7-6.3
			c1-1.2,2.5-1.9,4.1-1.8c1.5-0.1,2.9,0.5,3.8,1.7c0.8,1.3,1.2,2.8,1.1,4.3v14.3h4.1V50.2c0.2-2.2-0.3-4.4-1.4-6.2
			c-1.6-2.1-4.1-3.3-6.7-3.2c-2.6,0-5.1,1.2-6.7,3.3v-2.7h-4.1V64.6z M706,44.9c-1-2.6-3.6-4.3-6.4-4.2c-3.5-0.3-6.5,2.3-6.8,5.7
			c0,0.3,0,0.5,0,0.8c-0.1,1.2,0.3,2.5,1.1,3.4c1.6,1.5,3.6,2.7,5.7,3.4c2.2,1,3.8,1.7,3.8,3.9c0.1,2-1.5,3.7-3.5,3.7
			c-0.1,0-0.2,0-0.3,0c-2.2-0.2-4.1-1.7-4.7-3.8l-3.5,1.5c1.1,3.6,4.4,6,8.2,6c4.1,0.3,7.7-2.7,8-6.8c0-0.3,0-0.6,0-0.9
			c0.1-1.4-0.4-2.7-1.2-3.8c-1.6-1.7-3.6-2.9-5.9-3.6c-2.6-1.1-3.8-1.6-3.8-3.3c0-1.4,1.1-2.6,2.5-2.7c0.1,0,0.2,0,0.3,0
			c1.5,0,2.8,1,3.3,2.4L706,44.9z"/>
		<path id="Path_6292" class="st3" d="M209,105.3l-4.2-13.9h-0.1l-4.2,13.9h-2.6l-4.8-17.4h2.2l3.9,14.4h0.1l4.3-14.4h2.3l4.3,14.4
			h0.2l3.8-14.4h2.2l-4.7,17.4H209z M233,99.6h-8.8c0,0.9,0,1.8,0.3,2.6c0.2,0.5,0.6,0.9,1.1,1.1c0.9,0.3,1.9,0.4,2.8,0.3
			c1.4,0,2.8-0.1,4.1-0.3v1.8c-0.7,0.1-1.4,0.2-2.1,0.3c-0.9,0.1-1.7,0.1-2.5,0.1c-1.3,0.1-2.6-0.1-3.8-0.6
			c-0.8-0.4-1.4-1.1-1.6-1.9c-0.3-1.3-0.4-2.7-0.4-4.1c0-1.4,0.1-2.7,0.3-4c0.2-0.9,0.8-1.6,1.5-2c1.2-0.5,2.5-0.7,3.8-0.7
			c1.2-0.1,2.4,0.1,3.5,0.6c0.7,0.4,1.2,1.1,1.4,1.9c0.2,1.3,0.3,2.7,0.3,4.1L233,99.6z M227.8,94.1c-0.8,0-1.6,0.1-2.4,0.3
			c-0.5,0.2-0.8,0.6-1,1.1c-0.2,0.8-0.3,1.7-0.3,2.6h6.9v-0.2c0-0.8-0.1-1.7-0.3-2.5c-0.1-0.5-0.5-0.9-0.9-1
			C229.2,94.1,228.5,94,227.8,94.1z M251.3,105.3V87.9h11.3v2h-9.2v5.6h8v2h-8v5.7h9.2v2H251.3z M278.8,105.3l-3.8-4.9h-0.2
			l-3.7,4.9h-2.3l4.9-6.6l-4.7-6.4h2.4l3.6,4.7h0.1l3.6-4.7h2.3l-4.7,6.3l4.9,6.6H278.8z M288.2,92.4h1.8l0.1,1.8h0.2
			c0.3-0.7,0.9-1.3,1.6-1.6c0.8-0.3,1.7-0.5,2.6-0.4c1-0.1,2,0.1,2.9,0.6c0.7,0.4,1.2,1.2,1.4,2c0.3,1.3,0.5,2.7,0.4,4.1
			c0,1.4-0.1,2.8-0.4,4.1c-0.2,0.8-0.7,1.5-1.4,2c-0.9,0.4-1.9,0.6-2.9,0.6c-0.9,0-1.8-0.1-2.7-0.4c-0.7-0.3-1.2-0.8-1.5-1.4h-0.1
			v6.7h-2.1L288.2,92.4z M293.7,103.5c0.8,0,1.6-0.1,2.3-0.3c0.5-0.2,0.8-0.7,0.9-1.2c0.2-1,0.3-2.1,0.2-3.1c0-1,0-2.1-0.2-3.1
			c-0.1-0.5-0.4-1-0.9-1.3c-0.8-0.3-1.5-0.4-2.3-0.3c-0.7,0-1.4,0.1-2.1,0.4c-0.5,0.2-0.9,0.6-1.1,1.1c-0.2,0.4-0.3,0.8-0.3,1.3
			c0,0.5-0.1,1.1-0.1,1.9s0,1.5,0.1,1.9c0,0.4,0.1,0.8,0.3,1.2c0.2,0.5,0.6,0.9,1.1,1.2C292.3,103.4,293,103.5,293.7,103.5z
			 M307.2,105.3V86.5h2.1v18.8H307.2z M322.8,105.5c-1.3,0.1-2.6-0.1-3.9-0.5c-0.8-0.3-1.3-1-1.5-1.8c-0.3-1.4-0.4-2.8-0.3-4.3
			c0-1.4,0.1-2.9,0.3-4.3c0.2-0.8,0.7-1.5,1.5-1.8c1.2-0.4,2.6-0.6,3.9-0.5c1.3-0.1,2.6,0.1,3.8,0.5c0.8,0.3,1.3,1,1.5,1.8
			c0.3,1.4,0.4,2.8,0.3,4.3c0,1.4-0.1,2.9-0.3,4.3c-0.2,0.8-0.7,1.5-1.5,1.8C325.4,105.4,324.1,105.6,322.8,105.5L322.8,105.5z
			 M322.8,103.6c0.9,0.1,1.7-0.1,2.6-0.3c0.5-0.2,0.8-0.7,0.9-1.2c0.1-1.1,0.2-2.2,0.2-3.3c0-1.1,0-2.2-0.2-3.3
			c-0.1-0.5-0.4-1-0.9-1.2c-0.8-0.3-1.7-0.4-2.6-0.3c-0.9-0.1-1.7,0.1-2.6,0.3c-0.5,0.2-0.8,0.7-0.9,1.2c-0.1,1.1-0.2,2.2-0.2,3.2
			c0,1.1,0,2.2,0.2,3.3c0.1,0.5,0.4,1,0.9,1.2C321.1,103.6,321.9,103.7,322.8,103.6L322.8,103.6z M336.4,92.4h1.8l0.1,2.5h0.2
			c0.2-0.9,0.7-1.6,1.5-2.1c0.9-0.4,1.8-0.6,2.8-0.6v2.2c-0.9-0.1-1.8,0.1-2.7,0.5c-0.6,0.4-1.1,0.9-1.3,1.6c-0.3,1-0.4,2-0.4,3v5.8
			h-2.1L336.4,92.4z M359.9,99.6h-8.8c0,0.9,0,1.8,0.3,2.6c0.2,0.5,0.6,0.9,1.1,1.1c0.9,0.3,1.9,0.4,2.8,0.3c1.4,0,2.8-0.1,4.1-0.3
			v1.8c-0.7,0.1-1.4,0.2-2.1,0.3c-0.9,0.1-1.7,0.1-2.5,0.1c-1.3,0.1-2.6-0.1-3.8-0.6c-0.8-0.4-1.4-1.1-1.6-1.9
			c-0.3-1.3-0.4-2.7-0.4-4.1c0-1.4,0.1-2.7,0.3-4c0.2-0.9,0.8-1.6,1.5-2c1.2-0.5,2.5-0.7,3.8-0.7c1.2-0.1,2.4,0.1,3.5,0.6
			c0.7,0.4,1.2,1.1,1.4,1.9c0.2,1.3,0.3,2.7,0.3,4.1L359.9,99.6z M354.6,94.1c-0.8,0-1.6,0.1-2.4,0.3c-0.5,0.2-0.8,0.6-1,1.1
			c-0.2,0.8-0.3,1.7-0.3,2.6h6.8v-0.2c0-0.8-0.1-1.7-0.3-2.5c-0.1-0.5-0.5-0.9-1-1C356,94.1,355.3,94,354.6,94.1z M382.2,105.3v-6.6
			l-6.3-10.8h2.3l5,8.5h0.2l5-8.5h2.3l-6.4,10.8v6.6H382.2z M400.8,105.5c-1.3,0.1-2.6-0.1-3.9-0.5c-0.8-0.3-1.3-1-1.5-1.8
			c-0.3-1.4-0.4-2.8-0.3-4.3c0-1.4,0.1-2.9,0.3-4.3c0.2-0.8,0.7-1.5,1.5-1.8c1.2-0.4,2.6-0.6,3.9-0.5c1.3-0.1,2.6,0.1,3.8,0.5
			c0.8,0.3,1.3,1,1.5,1.8c0.3,1.4,0.4,2.8,0.3,4.3c0,1.4-0.1,2.9-0.3,4.3c-0.2,0.8-0.7,1.5-1.5,1.8
			C403.4,105.4,402.1,105.6,400.8,105.5L400.8,105.5z M400.8,103.6c0.9,0.1,1.7-0.1,2.6-0.3c0.5-0.2,0.8-0.7,0.9-1.2
			c0.1-1.1,0.2-2.2,0.2-3.3c0-1.1,0-2.2-0.2-3.3c-0.1-0.5-0.4-1-0.9-1.2c-0.8-0.3-1.7-0.4-2.6-0.3c-0.9-0.1-1.7,0.1-2.6,0.3
			c-0.5,0.2-0.8,0.7-0.9,1.2c-0.1,1.1-0.2,2.2-0.2,3.2c0,1.1,0,2.2,0.2,3.3c0.1,0.5,0.4,1,0.9,1.2
			C399,103.6,399.9,103.7,400.8,103.6L400.8,103.6z M423.1,103.5H423c-0.3,0.7-0.8,1.2-1.4,1.5c-0.9,0.4-1.9,0.6-2.9,0.5
			c-1,0.1-1.9-0.1-2.8-0.5c-0.6-0.3-1.1-0.9-1.3-1.6c-0.3-1-0.4-1.9-0.3-2.9v-8.1h2.1v7.3c0,0.9,0,1.7,0.2,2.6
			c0.1,0.5,0.4,0.8,0.8,1c0.7,0.2,1.4,0.3,2.1,0.3c0.8,0.1,1.6-0.1,2.3-0.5c0.5-0.3,0.8-0.8,1-1.4c0.2-0.8,0.2-1.7,0.2-2.5v-6.7h2.1
			v12.9h-1.8L423.1,103.5z M433.5,92.4h1.8l0.1,2.5h0.2c0.2-0.9,0.7-1.6,1.5-2.1c0.9-0.4,1.8-0.6,2.8-0.6v2.2
			c-0.9-0.1-1.8,0.1-2.7,0.5c-0.6,0.4-1.1,0.9-1.3,1.6c-0.3,1-0.4,2-0.4,3v5.8h-2.1L433.5,92.4z M460.9,105.3V90h-5.5v-2.1h13.2V90
			h-5.5v15.3H460.9z M484.4,98c0-0.9,0-1.7-0.2-2.6c-0.1-0.5-0.4-0.8-0.9-1c-0.7-0.2-1.4-0.3-2.1-0.3c-0.8-0.1-1.6,0.1-2.3,0.5
			c-0.5,0.3-0.8,0.8-0.9,1.4c-0.1,0.8-0.2,1.7-0.2,2.6v6.6h-2.1V86.5h2.1v7.6h0.1c0.3-0.6,0.8-1.1,1.4-1.4c0.9-0.4,1.8-0.5,2.8-0.5
			c1-0.1,1.9,0.1,2.8,0.5c0.6,0.3,1.1,0.9,1.3,1.6c0.3,1,0.4,1.9,0.3,2.9v8.1h-2.1L484.4,98z M500,105.5c-1.3,0.1-2.6-0.1-3.9-0.5
			c-0.8-0.3-1.3-1-1.5-1.8c-0.3-1.4-0.4-2.8-0.3-4.3c0-1.4,0.1-2.9,0.3-4.3c0.2-0.8,0.7-1.5,1.5-1.8c1.2-0.4,2.6-0.6,3.9-0.5
			c1.3-0.1,2.6,0.1,3.8,0.5c0.8,0.3,1.3,1,1.5,1.8c0.3,1.4,0.4,2.8,0.3,4.3c0.1,1.4,0,2.9-0.3,4.3c-0.2,0.8-0.7,1.5-1.5,1.8
			C502.6,105.4,501.3,105.6,500,105.5z M500,103.6c0.9,0.1,1.7-0.1,2.6-0.3c0.5-0.2,0.8-0.7,0.9-1.2c0.1-1.1,0.2-2.2,0.2-3.3
			c0-1.1,0-2.2-0.2-3.3c-0.1-0.5-0.4-1-0.9-1.2c-0.8-0.3-1.7-0.4-2.6-0.3c-0.9-0.1-1.7,0.1-2.6,0.3c-0.5,0.2-0.8,0.7-0.9,1.2
			c-0.1,1.1-0.2,2.2-0.2,3.3c0,1.1,0,2.2,0.2,3.3c0.1,0.5,0.4,1,0.9,1.2C498.2,103.6,499.1,103.7,500,103.6z M522.4,103.5h-0.2
			c-0.3,0.7-0.8,1.2-1.4,1.5c-0.9,0.4-1.9,0.6-2.9,0.5c-1,0.1-1.9-0.1-2.8-0.5c-0.6-0.3-1.1-0.9-1.3-1.6c-0.3-1-0.4-1.9-0.3-2.9
			v-8.1h2.1v7.3c0,0.9,0,1.7,0.2,2.6c0.1,0.5,0.4,0.8,0.8,1c0.7,0.2,1.4,0.3,2.1,0.3c0.8,0.1,1.6-0.1,2.3-0.5c0.5-0.3,0.8-0.8,1-1.4
			c0.2-0.8,0.2-1.7,0.2-2.5v-6.7h2.1v12.9h-1.8L522.4,103.5z M537.4,110.5c-1.5,0-3-0.1-4.6-0.2v-1.8c1.6,0.1,3,0.2,4.1,0.2
			c1,0,1.9-0.1,2.8-0.4c0.6-0.2,1-0.7,1.1-1.3c0.2-0.9,0.3-1.9,0.3-2.9v-0.5h-0.1c-0.3,0.6-0.8,1.1-1.5,1.4
			c-0.8,0.3-1.7,0.4-2.6,0.4c-1,0.1-2-0.1-3-0.6c-0.7-0.4-1.2-1.2-1.4-2c-0.3-1.3-0.5-2.7-0.4-4.1c0-1.4,0.1-2.8,0.4-4.1
			c0.2-0.8,0.7-1.5,1.4-2c0.9-0.4,1.9-0.6,2.9-0.6c0.9,0,1.8,0.1,2.6,0.4c0.7,0.3,1.3,0.9,1.6,1.6h0.2l0.1-1.8h1.8v11.3
			c0,1.4-0.1,2.8-0.4,4.1c-0.2,0.9-0.8,1.6-1.6,2.1C540.1,110.4,538.8,110.6,537.4,110.5L537.4,110.5z M537.8,103.5
			c0.7,0,1.4-0.1,2-0.3c0.5-0.2,0.8-0.5,1-1c0.2-0.4,0.3-0.9,0.3-1.3c0.1-0.7,0.1-1.3,0.1-2c0-0.9,0-1.5-0.1-2
			c0-0.4-0.1-0.8-0.3-1.2c-0.2-0.5-0.6-0.9-1.1-1.1c-0.6-0.2-1.3-0.4-2-0.3c-0.8,0-1.6,0.1-2.3,0.3c-0.5,0.2-0.8,0.7-1,1.2
			c-0.2,1-0.3,2.1-0.2,3.1c0,1,0,2.1,0.2,3.1c0.1,0.5,0.5,1,1,1.2C536.2,103.4,537,103.5,537.8,103.5L537.8,103.5z M560.5,98
			c0-0.9,0-1.7-0.2-2.6c-0.1-0.5-0.4-0.8-0.9-1c-0.7-0.2-1.4-0.3-2.1-0.3c-0.8-0.1-1.6,0.1-2.3,0.5c-0.5,0.3-0.8,0.8-0.9,1.4
			c-0.1,0.8-0.2,1.7-0.2,2.6v6.7h-2.1V86.5h2.1v7.6h0.1c0.3-0.6,0.8-1.1,1.4-1.4c0.9-0.4,1.8-0.5,2.8-0.5c1-0.1,1.9,0.1,2.8,0.5
			c0.6,0.3,1.1,0.9,1.3,1.6c0.3,1,0.4,1.9,0.3,2.9v8.1h-2.1L560.5,98z M572,105.3v-11h-2.6v-1.9h2.6v-3.7h2.1v3.7h3.1v1.9h-3.1v11
			H572z M588.4,105.5c-0.7,0-1.5,0-2.4-0.1s-1.7-0.1-2.3-0.2v-1.8c1.5,0.2,3.1,0.3,4.6,0.3c0.6,0,1.3,0,1.9-0.2
			c0.3-0.1,0.6-0.3,0.8-0.6c0.1-0.4,0.2-0.8,0.2-1.2c0-0.4,0-0.8-0.1-1.1c-0.1-0.2-0.2-0.4-0.4-0.5c-0.3-0.1-0.7-0.2-1.1-0.2
			l-3.4-0.4c-0.6,0-1.2-0.2-1.8-0.5c-0.4-0.3-0.7-0.7-0.8-1.1c-0.2-0.6-0.2-1.3-0.2-1.9c-0.1-0.9,0.1-1.7,0.6-2.5
			c0.4-0.5,1-0.9,1.6-1.1c0.9-0.2,1.9-0.3,2.8-0.3c0.7,0,1.4,0,2.1,0.1c0.6,0.1,1.3,0.1,1.9,0.3v1.8c-1.3-0.2-2.7-0.3-4.1-0.3
			c-0.6,0-1.2,0-1.8,0.1c-0.4,0.1-0.7,0.2-0.9,0.5c-0.2,0.4-0.4,0.8-0.3,1.2c0,0.4,0,0.7,0.1,1.1c0.1,0.2,0.2,0.4,0.4,0.5
			c0.3,0.1,0.7,0.2,1,0.2l3.5,0.4c0.6,0,1.2,0.2,1.7,0.4c0.4,0.2,0.7,0.6,0.8,1c0.2,0.7,0.3,1.4,0.3,2.2c0.1,0.8-0.1,1.7-0.5,2.4
			c-0.3,0.6-0.9,1-1.5,1.1C590.2,105.4,589.3,105.5,588.4,105.5z"/>
	</g>
</g>
</svg>
