<!-- Generator: Adobe Illustrator 24.0.0, SVG Export Plug-In  -->
<svg version="1.1" xmlns="http://www.w3.org/2000/svg" xmlns:xlink="http://www.w3.org/1999/xlink" x="0px" y="0px" width="343.5px"
	 height="109.4px" viewBox="0 0 343.5 109.4" style="enable-background:new 0 0 343.5 109.4;" xml:space="preserve">
<style type="text/css">
	.st0{fill:url(#SVGID_1_);}
	.st1{fill:url(#SVGID_2_);}
	.st2{fill:url(#SVGID_3_);}
	.st3{fill:url(#SVGID_4_);}
	.st4{fill:url(#SVGID_5_);}
	.st5{fill:url(#SVGID_6_);}
	.st6{fill:url(#SVGID_7_);}
	.st7{fill:url(#SVGID_8_);}
	.st8{fill:url(#SVGID_9_);}

    path.st7{ animation-delay:1s;}
    path.st5{ animation-delay:1.5s;}
    path.st2{ animation-delay:2s;}
    path.st3{ animation-delay:2.5s;}
    path.st8{ animation-delay:3s;}
    path.st2{ animation-delay:3.5s;}
    path.st6{ animation-delay:4s;}
     path.st1{ animation-delay:4.5s;}
      path.st4{ animation-delay:5s;}
    
  path{ animation:anima 6s cubic-bezier(0.175, 0.885, 0.32, 1.275) infinite;}
  @keyframes anima{
    0%{
      opacity: 0.1;
    }
    20%{
      opacity:0.1;
    }
  30%{
      opacity: 1;
    }
   32%{
      opacity: 1;
    }
   42%{
      opacity:0.1;
    }
   100%{
      opacity: 0.1;
    }

  }
</style>
<defs>
</defs>
<linearGradient id="SVGID_1_" gradientUnits="userSpaceOnUse" x1="0" y1="8.9083" x2="296.1163" y2="8.9083">
	<stop  offset="0" style="stop-color:#000000;stop-opacity:0"/>
	<stop  offset="8.691420e-02" style="stop-color:#010708;stop-opacity:8.691422e-02"/>
	<stop  offset="0.2186" style="stop-color:#04191C;stop-opacity:0.2186"/>
	<stop  offset="0.3786" style="stop-color:#09373F;stop-opacity:0.3786"/>
	<stop  offset="0.5609" style="stop-color:#11616E;stop-opacity:0.5609"/>
	<stop  offset="0.762" style="stop-color:#1A97AB;stop-opacity:0.762"/>
	<stop  offset="0.9759" style="stop-color:#25D7F4;stop-opacity:0.9759"/>
	<stop  offset="1" style="stop-color:#26DFFD"/>
</linearGradient>
<path class="st0" d="M1.6,17.8c0.7,0,1.3-0.4,1.5-1.1h229.5l14.6-14.6H293c0.2,0.6,0.8,1.1,1.5,1.1c0.9,0,1.6-0.7,1.6-1.6
	c0-0.9-0.7-1.6-1.6-1.6c-0.7,0-1.3,0.4-1.5,1.1h-46.2l-14.6,14.6H3.1c-0.2-0.6-0.8-1.1-1.5-1.1c-0.9,0-1.6,0.7-1.6,1.6
	C0,17.1,0.7,17.8,1.6,17.8z"/>
<linearGradient id="SVGID_2_" gradientUnits="userSpaceOnUse" x1="0" y1="18.8824" x2="262.2847" y2="18.8824">
	<stop  offset="0" style="stop-color:#000000;stop-opacity:0"/>
	<stop  offset="9.667940e-02" style="stop-color:#070805;stop-opacity:9.667940e-02"/>
	<stop  offset="0.2431" style="stop-color:#1B1C12;stop-opacity:0.2431"/>
	<stop  offset="0.4211" style="stop-color:#3C3F28;stop-opacity:0.4211"/>
	<stop  offset="0.6238" style="stop-color:#6A6E47;stop-opacity:0.6238"/>
	<stop  offset="0.8444" style="stop-color:#A3AA6D;stop-opacity:0.8444"/>
	<stop  offset="1" style="stop-color:#D0D98B"/>
</linearGradient>
<path class="st1" d="M1.6,27.1c0.7,0,1.3-0.4,1.5-1.1h244.5L260,13.7c0.6,0.3,1.3,0.2,1.8-0.3c0.6-0.6,0.6-1.6,0-2.3
	c-0.6-0.6-1.6-0.6-2.3,0c-0.5,0.5-0.6,1.2-0.3,1.8l-12,12H3.1c-0.2-0.6-0.8-1.1-1.5-1.1c-0.9,0-1.6,0.7-1.6,1.6
	C0,26.4,0.7,27.1,1.6,27.1z"/>
<linearGradient id="SVGID_3_" gradientUnits="userSpaceOnUse" x1="0" y1="40.8738" x2="275.3405" y2="40.8738">
	<stop  offset="0" style="stop-color:#000000;stop-opacity:0"/>
	<stop  offset="8.667677e-02" style="stop-color:#080401;stop-opacity:8.667677e-02"/>
	<stop  offset="0.218" style="stop-color:#1C0F03;stop-opacity:0.218"/>
	<stop  offset="0.3776" style="stop-color:#3F2206;stop-opacity:0.3776"/>
	<stop  offset="0.5594" style="stop-color:#6E3C0A;stop-opacity:0.5594"/>
	<stop  offset="0.76" style="stop-color:#AB5D10;stop-opacity:0.76"/>
	<stop  offset="0.9733" style="stop-color:#F48516;stop-opacity:0.9733"/>
	<stop  offset="1" style="stop-color:#FE8A17"/>
</linearGradient>
<path class="st2" d="M1.6,36.4c0.7,0,1.3-0.4,1.5-1.1h258.3l10.9,10.9c-0.3,0.6-0.2,1.3,0.3,1.8c0.6,0.6,1.6,0.6,2.3,0
	c0.6-0.6,0.6-1.6,0-2.3c-0.5-0.5-1.2-0.6-1.8-0.3l-11.2-11.2H3.1c-0.2-0.6-0.8-1.1-1.5-1.1c-0.9,0-1.6,0.7-1.6,1.6
	C0,35.7,0.7,36.4,1.6,36.4z"/>
<linearGradient id="SVGID_4_" gradientUnits="userSpaceOnUse" x1="0" y1="52.5246" x2="331.4432" y2="52.5246">
	<stop  offset="0" style="stop-color:#000000;stop-opacity:0"/>
	<stop  offset="8.691420e-02" style="stop-color:#010708;stop-opacity:8.691422e-02"/>
	<stop  offset="0.2186" style="stop-color:#04191C;stop-opacity:0.2186"/>
	<stop  offset="0.3786" style="stop-color:#09373F;stop-opacity:0.3786"/>
	<stop  offset="0.5609" style="stop-color:#11616E;stop-opacity:0.5609"/>
	<stop  offset="0.762" style="stop-color:#1A97AB;stop-opacity:0.762"/>
	<stop  offset="0.9759" style="stop-color:#25D7F4;stop-opacity:0.9759"/>
	<stop  offset="1" style="stop-color:#26DFFD"/>
</linearGradient>
<path class="st3" d="M1.6,45.7c0.7,0,1.3-0.4,1.5-1.1h252.1l17.9,17.9h39.2l16.9-16.9c0.6,0.3,1.3,0.2,1.8-0.3
	c0.6-0.6,0.6-1.6,0-2.3c-0.6-0.6-1.6-0.6-2.3,0c-0.5,0.5-0.6,1.2-0.3,1.8l-16.6,16.6h-38.3l-17.9-17.9H3.1c-0.2-0.6-0.8-1.1-1.5-1.1
	c-0.9,0-1.6,0.7-1.6,1.6C0,45,0.7,45.7,1.6,45.7z"/>
<linearGradient id="SVGID_5_" gradientUnits="userSpaceOnUse" x1="0" y1="64.1438" x2="343.4764" y2="64.1438">
	<stop  offset="0" style="stop-color:#000000;stop-opacity:0"/>
	<stop  offset="9.667940e-02" style="stop-color:#070805;stop-opacity:9.667940e-02"/>
	<stop  offset="0.2431" style="stop-color:#1B1C12;stop-opacity:0.2431"/>
	<stop  offset="0.4211" style="stop-color:#3C3F28;stop-opacity:0.4211"/>
	<stop  offset="0.6238" style="stop-color:#6A6E47;stop-opacity:0.6238"/>
	<stop  offset="0.8444" style="stop-color:#A3AA6D;stop-opacity:0.8444"/>
	<stop  offset="1" style="stop-color:#D0D98B"/>
</linearGradient>
<path class="st4" d="M1.6,59c0.7,0,1.3-0.4,1.5-1.1h247.2l14.6,14.6h51.3l14.6-14.6h9.5c0.2,0.6,0.8,1.1,1.5,1.1
	c0.9,0,1.6-0.7,1.6-1.6c0-0.9-0.7-1.6-1.6-1.6c-0.7,0-1.3,0.4-1.5,1.1h-9.9l-14.6,14.6h-50.5l-14.6-14.6H3.1
	c-0.2-0.6-0.8-1.1-1.5-1.1c-0.9,0-1.6,0.7-1.6,1.6C0,58.3,0.7,59,1.6,59z"/>
<linearGradient id="SVGID_6_" gradientUnits="userSpaceOnUse" x1="0" y1="79.8465" x2="297.2945" y2="79.8465">
	<stop  offset="0" style="stop-color:#000000;stop-opacity:0"/>
	<stop  offset="8.691422e-02" style="stop-color:#010708;stop-opacity:8.691422e-02"/>
	<stop  offset="0.2186" style="stop-color:#04191C;stop-opacity:0.2186"/>
	<stop  offset="0.3786" style="stop-color:#09373F;stop-opacity:0.3786"/>
	<stop  offset="0.5609" style="stop-color:#11616E;stop-opacity:0.5609"/>
	<stop  offset="0.762" style="stop-color:#1A97AB;stop-opacity:0.762"/>
	<stop  offset="0.9759" style="stop-color:#25D7F4;stop-opacity:0.9759"/>
	<stop  offset="1" style="stop-color:#26DFFD"/>
</linearGradient>
<path class="st5" d="M1.6,72.3c0.7,0,1.3-0.4,1.5-1.1h245l9.5,9.5h29l7.7,7.7c-0.3,0.6-0.2,1.3,0.3,1.8c0.6,0.6,1.6,0.6,2.3,0
	c0.6-0.6,0.6-1.6,0-2.3c-0.5-0.5-1.2-0.6-1.8-0.3l-8-8h-29l-9.5-9.5H3.1C2.9,69.5,2.3,69,1.6,69C0.7,69,0,69.8,0,70.7
	C0,71.5,0.7,72.3,1.6,72.3z"/>
<linearGradient id="SVGID_7_" gradientUnits="userSpaceOnUse" x1="0" y1="88.4719" x2="282.8378" y2="88.4719">
	<stop  offset="0" style="stop-color:#000000;stop-opacity:0"/>
	<stop  offset="8.667677e-02" style="stop-color:#080401;stop-opacity:8.667677e-02"/>
	<stop  offset="0.218" style="stop-color:#1C0F03;stop-opacity:0.218"/>
	<stop  offset="0.3776" style="stop-color:#3F2206;stop-opacity:0.3776"/>
	<stop  offset="0.5594" style="stop-color:#6E3C0A;stop-opacity:0.5594"/>
	<stop  offset="0.76" style="stop-color:#AB5D10;stop-opacity:0.76"/>
	<stop  offset="0.9733" style="stop-color:#F48516;stop-opacity:0.9733"/>
	<stop  offset="1" style="stop-color:#FE8A17"/>
</linearGradient>
<path class="st6" d="M1.6,85.5c0.7,0,1.3-0.4,1.5-1.1h236.1l9.1,9.1h31.4c0.2,0.6,0.8,1.1,1.5,1.1c0.9,0,1.6-0.7,1.6-1.6
	c0-0.9-0.7-1.6-1.6-1.6c-0.7,0-1.3,0.4-1.5,1.1h-31l-9.1-9.1H3.1c-0.2-0.6-0.8-1.1-1.5-1.1C0.7,82.3,0,83,0,83.9
	C0,84.8,0.7,85.5,1.6,85.5z"/>
<linearGradient id="SVGID_8_" gradientUnits="userSpaceOnUse" x1="0" y1="97.2121" x2="218.6563" y2="97.2121">
	<stop  offset="0" style="stop-color:#000000;stop-opacity:0"/>
	<stop  offset="8.691422e-02" style="stop-color:#010708;stop-opacity:8.691422e-02"/>
	<stop  offset="0.2186" style="stop-color:#04191C;stop-opacity:0.2186"/>
	<stop  offset="0.3786" style="stop-color:#09373F;stop-opacity:0.3786"/>
	<stop  offset="0.5609" style="stop-color:#11616E;stop-opacity:0.5609"/>
	<stop  offset="0.762" style="stop-color:#1A97AB;stop-opacity:0.762"/>
	<stop  offset="0.9759" style="stop-color:#25D7F4;stop-opacity:0.9759"/>
	<stop  offset="1" style="stop-color:#26DFFD"/>
</linearGradient>
<path class="st7" d="M1.6,98.8c0.7,0,1.3-0.4,1.5-1.1h212.4c0.2,0.6,0.8,1.1,1.5,1.1c0.9,0,1.6-0.7,1.6-1.6c0-0.9-0.7-1.6-1.6-1.6
	c-0.7,0-1.3,0.4-1.5,1.1H3.1c-0.2-0.6-0.8-1.1-1.5-1.1c-0.9,0-1.6,0.7-1.6,1.6C0,98.1,0.7,98.8,1.6,98.8z"/>
<linearGradient id="SVGID_9_" gradientUnits="userSpaceOnUse" x1="0" y1="104.5281" x2="259.1857" y2="104.5281">
	<stop  offset="0" style="stop-color:#000000;stop-opacity:0"/>
	<stop  offset="9.667940e-02" style="stop-color:#070805;stop-opacity:9.667940e-02"/>
	<stop  offset="0.2431" style="stop-color:#1B1C12;stop-opacity:0.2431"/>
	<stop  offset="0.4211" style="stop-color:#3C3F28;stop-opacity:0.4211"/>
	<stop  offset="0.6238" style="stop-color:#6A6E47;stop-opacity:0.6238"/>
	<stop  offset="0.8444" style="stop-color:#A3AA6D;stop-opacity:0.8444"/>
	<stop  offset="1" style="stop-color:#D0D98B"/>
</linearGradient>
<path class="st8" d="M1.6,109.4c0.7,0,1.3-0.4,1.5-1.1h248.1l5.7-5.7c0.6,0.3,1.3,0.2,1.8-0.3c0.6-0.6,0.6-1.6,0-2.3
	c-0.6-0.6-1.6-0.6-2.3,0c-0.5,0.5-0.6,1.2-0.3,1.8l-5.4,5.4H3.1c-0.2-0.6-0.8-1.1-1.5-1.1c-0.9,0-1.6,0.7-1.6,1.6
	C0,108.7,0.7,109.4,1.6,109.4z"/>
</svg>
