<?xml version="1.0" encoding="utf-8"?>
<!-- Generator: Adobe Illustrator 24.0.0, SVG Export Plug-In . SVG Version: 6.00 Build 0)  -->
<svg version="1.1" id="Layer_1" xmlns="http://www.w3.org/2000/svg" xmlns:xlink="http://www.w3.org/1999/xlink" x="0px" y="0px"
	 viewBox="0 0 140 140" style="enable-background:new 0 0 140 140;" xml:space="preserve">
<style type="text/css">
	.st0{fill:#333333;}
	.st1{fill:url(#Path_6251_2_);}
	.st2{fill:url(#Ellipse_38_1_);}
	.st3{fill:url(#Path_6262_1_);}
	.st4{fill:url(#Path_6263_1_);}
	.st5{fill:url(#Path_6266_1_);}
	.st6{fill:url(#Path_6268_1_);}
</style>
<g id="Group_170" transform="translate(-61)">
	
		<linearGradient id="Path_6263_1_" gradientUnits="userSpaceOnUse" x1="-226.3657" y1="124.2724" x2="-226.3657" y2="123.0746" gradientTransform="matrix(19.68 0 0 -19.681 4622.2129 2451.916)">
		<stop  offset="0" style="stop-color:#FFC108"/>
		<stop  offset="1" style="stop-color:#FA6B06"/>
	</linearGradient>
	<path id="Path_6263" class="st4" d="M155.6,6.1v23.6h23.6L155.6,6.1z"/>
	<path id="Path_6264" class="st0" d="M151.7,37.4c-2.1,0-3.9-1.7-3.9-3.9V3.8H92.2c-6.4,0-11.6,5.2-11.6,11.6v109.1
		c0,6.4,5.2,11.6,11.6,11.6h77.5c6.4,0,11.6-5.2,11.6-11.6V37.4H151.7z M115.9,93.4c1.4,1.6,1.1,4.1-0.5,5.5
		c-1.6,1.4-4.1,1.1-5.5-0.5L97,82.8c-1.2-1.4-1.2-3.5,0-5l12.9-15.5c1.4-1.6,3.8-1.9,5.5-0.5c1.6,1.4,1.9,3.8,0.5,5.5l0,0l-10.9,13
		L115.9,93.4z M139.8,66.1l-10.3,31c-0.7,2-2.9,3.1-4.9,2.5c-2-0.7-3.1-2.9-2.5-4.9l10.3-31c0.7-2,2.9-3.1,4.9-2.5
		C139.4,61.8,140.5,64,139.8,66.1z M165,82.8l-12.9,15.5c-1.4,1.6-3.8,1.9-5.5,0.5c-1.6-1.4-1.9-3.8-0.5-5.5l0,0l10.9-13l-10.9-13
		c-1.4-1.6-1.1-4.1,0.5-5.5c1.6-1.4,4.1-1.1,5.5,0.5l0,0L165,77.9C166.2,79.3,166.2,81.4,165,82.8L165,82.8z"/>
</g>
</svg>
