<?xml version="1.0" encoding="utf-8"?>
<!-- Generator: Adobe Illustrator 24.0.0, SVG Export Plug-In . SVG Version: 6.00 Build 0)  -->
<svg version="1.1" id="Layer_1" xmlns="http://www.w3.org/2000/svg" xmlns:xlink="http://www.w3.org/1999/xlink" x="0px" y="0px"
	 viewBox="0 0 140 140" style="enable-background:new 0 0 140 140;" xml:space="preserve">
<style type="text/css">
	.st0{fill:#333333;}
	.st1{fill:url(#Path_6251_2_);}
	.st2{fill:url(#Ellipse_38_1_);}
	.st3{fill:url(#Path_6262_1_);}
	.st4{fill:url(#Path_6263_1_);}
	.st5{fill:url(#Path_6266_1_);}
	.st6{fill:url(#Path_6268_1_);}
</style>
<g id="Group_163_1_" transform="translate(0 0)">
	<path id="Path_6250_1_" class="st0" d="M135.3,52.1h-8.7c-2.2,0-4.1,1.8-4.1,4.1v59.7c0,2.2,1.8,4.1,4.1,4.1h8.7
		c2.2,0,4.1-1.8,4.1-4.1V56.2C139.4,53.9,137.6,52.1,135.3,52.1C135.3,52.1,135.3,52.1,135.3,52.1z"/>
	
		<linearGradient id="Path_6251_2_" gradientUnits="userSpaceOnUse" x1="15.2587" y1="123.5598" x2="15.2587" y2="122.3618" gradientTransform="matrix(18.0272 0 0 -18.8553 -199.1382 2333.5928)">
		<stop  offset="0" style="stop-color:#FFC108"/>
		<stop  offset="1" style="stop-color:#FA6B06"/>
	</linearGradient>
	<path id="Path_6251_1_" class="st1" d="M79.2,26.4L86,14.7c1.5-2.6,0.6-5.9-2-7.4c0,0,0,0,0,0l-4.7-2.7c-2.6-1.5-5.9-0.6-7.4,2
		c0,0,0,0,0,0l-6.8,11.7L79.2,26.4z"/>
	<path id="Path_6252_1_" class="st0" d="M5.4,95.8c2.3,1.3,5.3,0.5,6.6-1.9l33.2-57.6c-3.1-0.7-6.4-0.1-9,1.9l-11.5,8.6
		c-3.4,2.5-6.1,5.7-8.2,9.4L1.8,82.9C-0.8,87.5,0.8,93.2,5.4,95.8L5.4,95.8L5.4,95.8z"/>
	<path id="Path_6253_1_" class="st0" d="M29.5,82h17.6l28-48.5l-14.1-8.1L28.3,82C28.7,82,29.1,82,29.5,82z"/>
	<path id="Path_6254_1_" class="st0" d="M13.7,107.4l-4.2,7.3c-0.2,0.3-0.3,0.7-0.4,1.1l-3.9,16.4c-0.4,1.7,0.7,3.5,2.4,3.9
		c1.1,0.3,2.2,0,3-0.8l12.3-11.6c0.3-0.3,0.5-0.6,0.7-0.9l3.3-5.8C21.2,116.2,16.3,112.6,13.7,107.4z"/>
	<path id="Path_6255_1_" class="st0" d="M61.9,117.2H36.2l-5.4,9.3c3.6,3.8,9.6,3.9,13.4,0.2c1.9-1.8,2.9-4.3,2.9-6.8
		c0,5.2,4.2,9.5,9.5,9.5s9.5-4.2,9.5-9.5v-0.6C65.2,118.9,62.9,117.7,61.9,117.2z"/>
	<path id="Path_6256_1_" class="st0" d="M78.1,44.7L56.6,82h6.4c2.2,0.1,4,2,3.8,4.3c-0.1,2.1-1.8,3.7-3.8,3.8H29.5
		c-5.2,0-9.5,4.2-9.5,9.5c0,5.2,4.2,9.5,9.5,9.5l0,0h34.3l4.5,2.2c7.7,3.9,16.3,5.9,24.9,5.9c7.3,0,14.5-1.4,21.2-4.1V60.3h-6.4
		L78.1,44.7z"/>
</g>
</svg>
