<?xml version="1.0" encoding="utf-8"?>
<!-- Generator: Adobe Illustrator 24.0.0, SVG Export Plug-In . SVG Version: 6.00 Build 0)  -->
<svg version="1.1" id="Layer_1" xmlns="http://www.w3.org/2000/svg" xmlns:xlink="http://www.w3.org/1999/xlink" x="0px" y="0px"
	 viewBox="0 0 140 140" style="enable-background:new 0 0 140 140;" xml:space="preserve">
<style type="text/css">
	.st0{fill:#333333;}
	.st1{fill:url(#Path_6251_2_);}
	.st2{fill:url(#Ellipse_38_1_);}
	.st3{fill:url(#Path_6262_1_);}
	.st4{fill:url(#Path_6263_1_);}
	.st5{fill:url(#Path_6266_1_);}
	.st6{fill:url(#Path_6268_1_);}
</style>
<g id="Group_169" transform="translate(-3 -9.181)">
	<g id="Group_168" transform="translate(3 9.181)">
		<path id="Path_6257" class="st0" d="M139.1,81.9c0-1.7-0.9-3.3-2.4-4.2v-9.8l1.2-0.5L105.1,53L72.4,67.4l32.7,14.3L131.8,70v7.7
			c-2.3,1.3-3.1,4.2-1.8,6.6c0.4,0.7,1,1.4,1.8,1.8V94h4.9v-7.9C138.1,85.2,139,83.6,139.1,81.9z"/>
		<path id="Path_6258" class="st0" d="M0.9,32.5c0,0.4,0,0.8,0.1,1.2l20.2,87.4c0.7,3,3.7,4.9,6.7,4.2c0,0,0,0,0,0l0.3-0.1L5.3,27.2
			C2.8,27.8,1,30,0.9,32.5z"/>
		<path id="Path_6259" class="st0" d="M54.5,25.1c0.6-1.2,2.1-1.7,3.3-1.1c0.2,0.1,0.4,0.3,0.6,0.5l1.4,1.4l-2.1-9.4l-7.4,1.5
			l2.4,10.7L54.5,25.1z"/>
		
			<linearGradient id="Ellipse_38_1_" gradientUnits="userSpaceOnUse" x1="-139.2898" y1="119.3931" x2="-139.2898" y2="118.1805" gradientTransform="matrix(15.984 0 0 -15.984 2273.3916 1956.354)">
			<stop  offset="0" style="stop-color:#FFC108"/>
			<stop  offset="1" style="stop-color:#FA6B06"/>
		</linearGradient>
		<circle id="Ellipse_38" class="st2" cx="47" cy="57.7" r="9.7"/>
		<path id="Path_6260" class="st0" d="M105.1,86.7c-0.3,0-0.7-0.1-1-0.2l-20.8-9.1v17.8c5.7,3.9,12.5,6.1,19.4,6.1h2.4h2.4
			c6.9,0,13.7-2.1,19.4-6.1V77.4l-20.8,9.1C105.8,86.7,105.5,86.7,105.1,86.7z"/>
		<path id="Path_6261" class="st0" d="M79.4,98.4c-0.6-0.5-1-1.2-1-1.9V75.3l-13.1-5.7c-1.2-0.5-1.8-2-1.2-3.2
			c0.2-0.6,0.7-1,1.2-1.2l11.3-5l-9.8-45.7l-4.5,0.9l3.9,17.5c0.3,1.3-0.5,2.6-1.9,2.9c-0.8,0.2-1.6-0.1-2.2-0.6l-4.9-4.9L54,37
			c-0.4,0.8-1.3,1.3-2.2,1.3c-0.1,0-0.2,0-0.3,0c-1-0.1-1.8-0.9-2.1-1.9l-3.9-17.5L10,26.3l22.9,97.9l54.8-12.6l-2-9.4
			C83.5,101.1,81.4,99.8,79.4,98.4z M47,43.1c8,0,14.5,6.5,14.5,14.5S55,72.2,47,72.2s-14.5-6.5-14.5-14.5
			C32.5,49.6,39,43.1,47,43.1z M76.6,98.8l-38.8,9.7c-1.3,0.3-2.6-0.5-2.9-1.8c0,0,0-0.1,0-0.1l-2.4-12.1c-0.3-1.3,0.5-2.5,1.8-2.8
			L73,82c0.6-0.2,1.3-0.1,1.9,0.3c0.6,0.4,0.9,0.9,1.1,1.6L78.4,96C78.7,97.2,77.9,98.5,76.6,98.8L76.6,98.8z"/>
		
			<linearGradient id="Path_6262_1_" gradientUnits="userSpaceOnUse" x1="-150.9115" y1="114.0833" x2="-150.9115" y2="112.8707" gradientTransform="matrix(29.302 0 0 -13.087 4477.4731 1580.2937)">
			<stop  offset="0" style="stop-color:#FFC108"/>
			<stop  offset="1" style="stop-color:#FA6B06"/>
		</linearGradient>
		<path id="Path_6262" class="st3" d="M37.7,95.8l1.5,7.4l34.1-8.5l-1.5-7.4L37.7,95.8z"/>
	</g>
</g>
</svg>
