<?xml version="1.0" encoding="utf-8"?>
<!-- Generator: Adobe Illustrator 24.0.0, SVG Export Plug-In . SVG Version: 6.00 Build 0)  -->
<svg version="1.1" id="Layer_1" xmlns="http://www.w3.org/2000/svg" xmlns:xlink="http://www.w3.org/1999/xlink" x="0px" y="0px"
	 viewBox="0 0 140 140" style="enable-background:new 0 0 140 140;" xml:space="preserve">
<style type="text/css">
	.st0{fill:#333333;}
	.st1{fill:url(#Path_6251_2_);}
	.st2{fill:url(#Ellipse_38_1_);}
	.st3{fill:url(#Path_6262_1_);}
	.st4{fill:url(#Path_6263_1_);}
	.st5{fill:url(#Path_6266_1_);}
	.st6{fill:url(#Path_6268_1_);}
</style>
<g id="Group_172" transform="translate(-0.5)">
	<g id="Group_171" transform="translate(0.5)">
		<path id="Path_6265" class="st0" d="M98.7,135.2c0,1.7-1.4,3.1-3.1,3.1H44.1c-1.7,0-3.2-1.3-3.2-3.1s1.3-3.2,3.1-3.2
			c0,0,0.1,0,0.1,0h11.1v-12.5h29.6V132h11.1C97.5,132.2,98.8,133.5,98.7,135.2z"/>
		
			<linearGradient id="Path_6266_1_" gradientUnits="userSpaceOnUse" x1="-427.6383" y1="121.0143" x2="-427.6383" y2="119.7778" gradientTransform="matrix(16.5701 0 0 -16.5701 7155.9961 2030.2516)">
			<stop  offset="0" style="stop-color:#FFC108"/>
			<stop  offset="1" style="stop-color:#FA6B06"/>
		</linearGradient>
		<path id="Path_6266" class="st5" d="M70,45.5c5.7,0,10.2-4.6,10.2-10.2S75.7,25,70,25s-10.2,4.6-10.2,10.2
			C59.7,40.9,64.3,45.5,70,45.5C69.9,45.5,70,45.5,70,45.5z"/>
		<path id="Path_6267" class="st0" d="M3.1,103.9c0.1,5.5,4.5,9.9,10,10h113.8c5.5-0.1,9.9-4.5,10-10v-1.4H3.1V103.9z"/>
		
			<linearGradient id="Path_6268_1_" gradientUnits="userSpaceOnUse" x1="-453.6487" y1="121.7772" x2="-453.6487" y2="120.5407" gradientTransform="matrix(40.966 0 0 -17.491 18654.1719 2181.5061)">
			<stop  offset="0" style="stop-color:#FFC108"/>
			<stop  offset="1" style="stop-color:#FA6B06"/>
		</linearGradient>
		<path id="Path_6268" class="st6" d="M70,51.5c-10.2,0-19.6,8.3-25.3,21.6h50.7C89.9,59.8,80.2,51.5,70,51.5z"/>
		<path id="Path_6269" class="st0" d="M126.9,1.7H13.1c-5.5,0.1-9.9,4.5-10,10v84.8h133.8V11.7C136.8,6.2,132.4,1.8,126.9,1.7z
			 M112.4,79.1H27.6c-1.7,0-3.1-1.5-3.1-3.2c0-1.7,1.4-3,3.1-3.1h10.5c4.6-12.5,12.2-21.3,21.3-25.3c-3.6-3.1-5.7-7.5-5.7-12.2
			c0-9,7.3-16.2,16.2-16.2s16.2,7.3,16.2,16.2c-0.1,4.8-2.1,9.3-5.7,12.5c9.1,4,16.8,12.8,21.3,25.3h10.5c1.7,0,3.1,1.4,3.1,3.1
			c0,1.6-1.4,2.9-3,2.9C112.5,79.1,112.4,79.1,112.4,79.1L112.4,79.1z"/>
	</g>
</g>
</svg>
